<?xml version="1.0" encoding="UTF-8"?><svg id="Layer_2" xmlns="http://www.w3.org/2000/svg" viewBox="0 0 45.47 56.83"><defs><style>.cls-1{fill:#322846;stroke-width:0px;}</style></defs><g id="Layer_1-2"><path class="cls-1" d="M7.58,49.25h3.78v3.78h-3.78v-3.78Z"/><path class="cls-1" d="M41.68,3.79h3.79v3.79h-3.79v-3.79Z"/><path class="cls-1" d="M37.89,7.58h3.78v3.78h-3.78v-3.78Z"/><path class="cls-1" d="M34.1,22.73h3.79v3.79h-3.79v-3.79Z"/><path class="cls-1" d="M34.1,11.36h3.79v3.79h-3.79v-3.79Z"/><path class="cls-1" d="M30.31,26.52h3.78v3.78h-3.78v-3.78Z"/><path class="cls-1" d="M30.31,18.95h-3.8v3.78h7.58v-7.57h-3.78v3.79Z"/><path class="cls-1" d="M26.52,30.31h3.79v3.79h-3.79v-3.79Z"/><path class="cls-1" d="M22.73,34.1h3.78v3.78h-3.78v-3.78Z"/><path class="cls-1" d="M18.94,37.88h3.79v3.79h-3.79v-3.79Z"/><path class="cls-1" d="M37.89,0H15.15v3.79h26.53V0h-3.79Z"/><path class="cls-1" d="M15.15,41.68h3.78v3.78h-3.78v-3.78Z"/><path class="cls-1" d="M11.36,45.46h3.79v3.79h-3.79v-3.79Z"/><path class="cls-1" d="M11.36,3.79h3.79v3.79h-3.79v-3.79Z"/><path class="cls-1" d="M7.58,30.31v3.79h3.78v-3.79h3.79v-3.79H3.79v3.79h3.79Z"/><path class="cls-1" d="M7.58,11.36v3.8h3.78v-7.58h-3.78v3.78Z"/><path class="cls-1" d="M3.79,37.88v7.58h3.79v-11.36h-3.79v3.79Z"/><path class="cls-1" d="M3.79,18.95v3.78h3.79v-7.57h-3.79v3.79Z"/><path class="cls-1" d="M0,49.25v7.58h7.58v-3.79h-3.79v-7.58H0v3.79Z"/><path class="cls-1" d="M0,22.73h3.79v3.79H0v-3.79Z"/></g></svg>