<?xml version="1.0" encoding="UTF-8"?><svg id="Layer_2" xmlns="http://www.w3.org/2000/svg" viewBox="0 0 53.8 44.31"><defs><style>.cls-1{fill:#322846;stroke-width:0px;}</style></defs><g id="Layer_1-2"><path class="cls-1" d="M3.16,6.33h3.17v3.17h-3.17v-3.17Z"/><path class="cls-1" d="M6.33,22.16h3.17v3.17h-3.17v-3.17Z"/><path class="cls-1" d="M6.33,3.16h3.17v3.17h-3.17v-3.17Z"/><path class="cls-1" d="M9.49,25.32h3.17v3.17h-3.17v-3.17Z"/><path class="cls-1" d="M9.49,6.33h3.17v3.17h-3.17v-3.17Z"/><path class="cls-1" d="M12.66,28.49h3.17v3.17h-3.17v-3.17Z"/><path class="cls-1" d="M12.66,9.5h3.17v3.17h-3.17v-3.17Z"/><path class="cls-1" d="M15.82,3.16h9.49v3.17h3.17v-3.17h15.82V0H9.49v3.16h6.33Z"/><path class="cls-1" d="M15.82,31.65h3.17v3.17h-3.17v-3.17Z"/><path class="cls-1" d="M18.98,34.81h3.17v3.17h-3.17v-3.17Z"/><path class="cls-1" d="M18.98,28.49h3.17v-6.33h-3.17v6.33Z"/><path class="cls-1" d="M18.98,9.5h3.17v3.17h-3.17v-3.17Z"/><path class="cls-1" d="M22.15,28.49h3.17v3.17h-3.17v-3.17Z"/><path class="cls-1" d="M22.15,6.33h3.17v3.17h-3.17v-3.17Z"/><path class="cls-1" d="M28.48,34.81v-3.16h-3.17v6.33h-3.16v3.16h3.16v3.17h3.17v-3.17h3.16v-3.16h-3.16v-3.17Z"/><path class="cls-1" d="M28.48,28.49h3.17v3.17h-3.17v-3.17Z"/><path class="cls-1" d="M28.48,6.33h3.17v3.17h-3.17v-3.17Z"/><path class="cls-1" d="M31.65,34.81h3.17v3.17h-3.17v-3.17Z"/><path class="cls-1" d="M31.65,25.32v3.17h3.17v-6.33h-3.17v3.16Z"/><path class="cls-1" d="M31.65,9.5h3.17v3.17h-3.17v-3.17Z"/><path class="cls-1" d="M34.81,31.65h3.17v3.17h-3.17v-3.17Z"/><path class="cls-1" d="M37.97,28.49h3.17v3.17h-3.17v-3.17Z"/><path class="cls-1" d="M37.97,9.5h3.17v3.17h-3.17v-3.17Z"/><path class="cls-1" d="M41.14,25.32h3.17v3.17h-3.17v-3.17Z"/><path class="cls-1" d="M41.14,6.33h3.17v3.17h-3.17v-3.17Z"/><path class="cls-1" d="M44.31,22.16h3.17v3.17h-3.17v-3.17Z"/><path class="cls-1" d="M44.31,3.16h3.17v3.17h-3.17v-3.17Z"/><path class="cls-1" d="M47.47,6.33h3.17v3.17h-3.17v-3.17Z"/><path class="cls-1" d="M50.64,9.5v6.33h-12.66v-3.16h-3.16v3.16h-15.83v-3.16h-3.16v3.16H3.16v-6.33H0v9.49h3.16v3.17h3.17v-3.17h9.5v3.17h3.16v-3.17h15.83v3.17h3.16v-3.17h9.5v3.17h3.17v-3.17h3.16v-9.49h-3.16Z"/></g></svg>