<?xml version="1.0" encoding="UTF-8"?><svg id="Layer_2" xmlns="http://www.w3.org/2000/svg" viewBox="0 0 57.91 28.96"><defs><style>.cls-1{fill:#322846;stroke-width:0px;}</style></defs><g id="Layer_1-2"><path class="cls-1" d="M10.34,12.41h2.07v-2.07h-6.2v2.07h4.13Z"/><path class="cls-1" d="M4.14,14.48h2.07v-2.07H2.07v4.14h2.07v-2.07Z"/><path class="cls-1" d="M2.07,18.62v-2.07H0v6.2h2.07v-4.13Z"/><path class="cls-1" d="M4.14,24.82v-2.07h-2.07v4.14h4.14v-2.07h-2.07Z"/><path class="cls-1" d="M8.27,26.89h-2.07v2.07h6.2v-2.07h-4.14Z"/><path class="cls-1" d="M14.48,24.82h-2.07v2.07h4.14v-4.14h-2.07v2.07Z"/><path class="cls-1" d="M12.41,16.55h4.14v-4.14h-4.14v4.14Z"/><path class="cls-1" d="M16.55,10.34h2.07v2.07h-2.07v-2.07Z"/><path class="cls-1" d="M20.69,8.27v-2.07h-2.07v4.13h2.07v-2.07Z"/><path class="cls-1" d="M22.75,4.14v-2.07h2.07V0h-6.2v2.07h2.07v4.14h2.07v-2.07Z"/><path class="cls-1" d="M37.23,6.21h-14.48v4.13h2.07v-2.07h12.41v2.07h2.07v-2.07h2.07v-2.07h-4.14Z"/><path class="cls-1" d="M28.96,14.48v-2.07h-2.07v-2.07h-2.07v4.14h2.07v4.14h-8.27v-2.07h-2.07v2.07h-4.14v-2.07h-2.07v2.07h-2.07v2.07h8.27v2.07h2.07v-2.07h8.27v2.07h2.07v-4.13h2.07v-2.07h-2.07v-2.07Z"/><path class="cls-1" d="M31.03,14.48h2.07v2.07h-2.07v-2.07Z"/><path class="cls-1" d="M33.09,12.41h2.07v2.07h-2.07v-2.07Z"/><path class="cls-1" d="M35.16,10.34h2.07v2.07h-2.07v-2.07Z"/><path class="cls-1" d="M47.57,20.68h2.07v-4.14h-2.07v4.14Z"/><path class="cls-1" d="M43.44,14.48h2.07v2.07h2.07v-4.14h4.13v-2.07h-6.2v-4.13h-2.07v6.2h-2.07v4.14h2.07v-2.07Z"/><path class="cls-1" d="M41.37,18.62v-2.07h-2.07v6.2h2.07v-4.13Z"/><path class="cls-1" d="M43.44,24.82v-2.07h-2.07v4.14h4.14v-2.07h-2.07Z"/><path class="cls-1" d="M47.57,26.89h-2.07v2.07h6.2v-2.07h-4.13Z"/><path class="cls-1" d="M53.78,24.82h-2.07v2.07h4.14v-4.14h-2.07v2.07Z"/><path class="cls-1" d="M55.85,18.62v4.13h2.07v-6.2h-2.07v2.07Z"/><path class="cls-1" d="M53.78,14.48v2.07h2.07v-4.14h-4.14v2.07h2.07Z"/><path class="cls-1" d="M43.44,2.07V0h-4.14v2.07h2.07v4.14h2.07V2.07Z"/></g></svg>