<?xml version="1.0" encoding="UTF-8"?><svg id="Layer_2" xmlns="http://www.w3.org/2000/svg" viewBox="0 0 60.33 60.33"><defs><style>.cls-1{fill:#322846;stroke-width:0px;}</style></defs><g id="Layer_1-2"><path class="cls-1" d="M6.03,42.23h3.02v3.02h-3.02v-3.02Z"/><path class="cls-1" d="M51.28,42.23v-6.03h-3.02v3.02H12.07v-3.02h-3.02v6.03h42.23Z"/><path class="cls-1" d="M9.05,0h42.23v3.02H9.05V0Z"/><path class="cls-1" d="M15.08,6.03h30.16v3.02H15.08v-3.02Z"/><path class="cls-1" d="M6.03,3.02h3.02v33.18h-3.02V3.02Z"/><path class="cls-1" d="M51.28,3.02h3.02v33.18h-3.02V3.02Z"/><path class="cls-1" d="M15.08,33.18h30.16v3.02H15.08v-3.02Z"/><path class="cls-1" d="M45.25,9.05h3.02v24.13h-3.02V9.05Z"/><path class="cls-1" d="M3.02,45.25h3.02v3.02h-3.02v-3.02Z"/><path class="cls-1" d="M0,48.26h3.02v9.05H0v-9.05Z"/><path class="cls-1" d="M51.28,42.23h3.02v3.02h-3.02v-3.02Z"/><path class="cls-1" d="M54.29,45.25h3.02v3.02h-3.02v-3.02Z"/><path class="cls-1" d="M57.31,48.26h3.02v9.05h-3.02v-9.05Z"/><path class="cls-1" d="M3.02,57.31h54.29v3.02H3.02v-3.02Z"/><path class="cls-1" d="M12.07,45.25h3.02v3.02h-3.02v-3.02Z"/><path class="cls-1" d="M18.1,45.25h3.02v3.02h-3.02v-3.02Z"/><path class="cls-1" d="M24.13,45.25h3.02v3.02h-3.02v-3.02Z"/><path class="cls-1" d="M15.08,51.28h3.02v3.02h-3.02v-3.02Z"/><path class="cls-1" d="M9.05,51.28h3.02v3.02h-3.02v-3.02Z"/><path class="cls-1" d="M27.15,51.28h3.02v3.02h-3.02v-3.02Z"/><path class="cls-1" d="M21.11,51.28h3.02v3.02h-3.02v-3.02Z"/><path class="cls-1" d="M30.16,45.25h3.02v3.02h-3.02v-3.02Z"/><path class="cls-1" d="M36.2,45.25h3.02v3.02h-3.02v-3.02Z"/><path class="cls-1" d="M42.23,45.25h3.02v3.02h-3.02v-3.02Z"/><path class="cls-1" d="M33.18,51.28h3.02v3.02h-3.02v-3.02Z"/><path class="cls-1" d="M45.25,51.28h3.02v3.02h-3.02v-3.02Z"/><path class="cls-1" d="M39.21,51.28h3.02v3.02h-3.02v-3.02Z"/><path class="cls-1" d="M12.07,9.05h3.02v24.13h-3.02V9.05Z"/></g></svg>