<?xml version="1.0" encoding="UTF-8"?><svg id="Layer_2" xmlns="http://www.w3.org/2000/svg" viewBox="0 0 53.65 57.23"><defs><style>.cls-1{fill:#322846;stroke-width:0px;}</style></defs><g id="Layer_1-2"><path class="cls-1" d="M53.65,25.04v7.15h-25.04v21.47h-3.57v-21.47H0v-7.15h3.57v3.57h10.73v-7.16h3.57v7.15h17.89v-7.15h3.58v7.15h10.73v-3.57h3.58ZM46.49,25.04h3.58v-7.16h-3.58v7.16ZM46.49,17.88v-3.57h-3.57v3.57h3.57ZM42.92,14.31v-3.57h-3.57v3.57h3.57ZM39.35,46.49h-3.58v7.16h3.58v-7.16ZM35.77,14.31h-3.58v7.15h3.58v-7.15ZM39.35,10.73v-3.58h-7.16v3.58h7.16ZM35.77,57.23v-3.57h-7.15v3.57h7.15ZM32.19,14.31v-3.57h-3.57v3.57h3.57ZM25.04,10.73h3.57v-3.58h3.57v-3.58h-3.57V0h-3.57v3.57h-3.58v3.58h3.58l-3.58,3.58v3.57h3.58v-3.57ZM21.46,14.31h-3.58v7.15h3.58v-7.15ZM21.46,10.73v-3.58h-7.15v3.58h7.15ZM14.31,10.73h-3.57v3.57h3.57v-3.57ZM10.73,14.31h-3.58v3.57h3.58v-3.57ZM7.15,17.88h-3.58v7.16h3.58v-7.16Z"/></g></svg>