<?xml version="1.0" encoding="UTF-8"?><svg id="Layer_2" xmlns="http://www.w3.org/2000/svg" viewBox="0 0 57.91 61.78"><defs><style>.cls-1{fill:#322846;stroke-width:0px;}</style></defs><g id="Layer_1-2"><path class="cls-1" d="M3.86,19.3h3.86v3.86h-3.86v-3.86Z"/><path class="cls-1" d="M50.19,34.75h3.86v3.86h-3.86v-3.86Z"/><path class="cls-1" d="M3.86,27.03v-3.86H0v11.58h3.86v-7.72Z"/><path class="cls-1" d="M50.19,19.3h3.86v3.86h-3.86v-3.86Z"/><path class="cls-1" d="M3.86,34.75h3.86v3.86h-3.86v-3.86Z"/><path class="cls-1" d="M42.47,38.61H7.72v3.86h42.47v-3.86h-7.72Z"/><path class="cls-1" d="M34.75,3.86h3.86v3.86h-3.86v-3.86Z"/><path class="cls-1" d="M19.3,19.3h3.86v3.86h-3.86v-3.86Z"/><path class="cls-1" d="M34.75,19.3h3.86v3.86h-3.86v-3.86Z"/><path class="cls-1" d="M38.61,15.44v3.86h11.58v-3.86h-7.72v-7.72h-3.86v7.72Z"/><path class="cls-1" d="M30.89,3.86h3.86V0h-11.58v3.86h7.72Z"/><path class="cls-1" d="M19.3,3.86h3.86v3.86h-3.86v-3.86Z"/><path class="cls-1" d="M54.05,23.17v11.58h3.86v-11.58h-3.86Z"/><path class="cls-1" d="M15.44,19.3h3.86V7.72h-3.86v7.72h-7.72v3.86h7.72Z"/><path class="cls-1" d="M11.58,50.19v-3.86H3.86v3.86h7.72Z"/><path class="cls-1" d="M3.86,57.91v3.86h7.72v-3.86H3.86Z"/><path class="cls-1" d="M3.86,50.19H0v7.72h3.86v-7.72Z"/><path class="cls-1" d="M11.58,54.05v3.86h3.86v-7.72h-3.86v3.86Z"/><path class="cls-1" d="M30.89,50.19v-3.86h-7.72v3.86h7.72Z"/><path class="cls-1" d="M23.17,57.91v3.86h7.72v-3.86h-7.72Z"/><path class="cls-1" d="M23.17,50.19h-3.86v7.72h3.86v-7.72Z"/><path class="cls-1" d="M30.89,54.05v3.86h3.86v-7.72h-3.86v3.86Z"/><path class="cls-1" d="M50.19,50.19v-3.86h-7.72v3.86h7.72Z"/><path class="cls-1" d="M42.47,57.91v3.86h7.72v-3.86h-7.72Z"/><path class="cls-1" d="M42.47,50.19h-3.86v7.72h3.86v-7.72Z"/><path class="cls-1" d="M50.19,54.05v3.86h3.86v-7.72h-3.86v3.86Z"/></g></svg>