<?xml version="1.0" encoding="UTF-8"?><svg id="Layer_2" xmlns="http://www.w3.org/2000/svg" viewBox="0 0 54.05 57.91"><defs><style>.cls-1{fill:#322846;stroke-width:0px;}</style></defs><g id="Layer_1-2"><path class="cls-1" d="M11.58,46.33h3.86v3.86h-3.86v-3.86Z"/><path class="cls-1" d="M3.86,46.33H0v7.72h3.86v-7.72Z"/><path class="cls-1" d="M30.89,46.33h3.86v3.86h-3.86v-3.86Z"/><path class="cls-1" d="M11.58,34.75h3.86v3.86h-3.86v-3.86Z"/><path class="cls-1" d="M34.75,54.05H3.86v3.86h38.61v-3.86h-7.72Z"/><path class="cls-1" d="M23.17,34.75h7.72v3.86h3.86v-3.86h3.86v-3.86h-15.44v-15.44h-3.86v15.44h-3.86v3.86h7.72Z"/><path class="cls-1" d="M30.89,15.44h7.72v-3.86h-15.44v3.86h7.72Z"/><path class="cls-1" d="M11.58,46.33v-7.72h-3.86v3.86h-3.86v3.86h7.72Z"/><path class="cls-1" d="M42.47,7.72h3.86v3.86h-3.86v-3.86Z"/><path class="cls-1" d="M46.33,3.86h3.86v3.86h-3.86v-3.86Z"/><path class="cls-1" d="M34.75,46.33h7.72v-3.86h-3.86v-3.86h-3.86v7.72Z"/><path class="cls-1" d="M30.89,3.86V0h-3.86v7.72h3.86v-3.86Z"/><path class="cls-1" d="M38.61,23.17v7.72h3.86v-15.44h-3.86v7.72Z"/><path class="cls-1" d="M50.19,19.3h-3.86v3.86h7.72v-3.86h-3.86Z"/><path class="cls-1" d="M15.44,23.17v-3.86h-7.72v3.86h7.72Z"/><path class="cls-1" d="M42.47,50.19v3.86h3.86v-7.72h-3.86v3.86Z"/><path class="cls-1" d="M11.58,3.86h3.86v3.86h-3.86v-3.86Z"/><path class="cls-1" d="M15.44,7.72h3.86v3.86h-3.86v-3.86Z"/></g></svg>