<?xml version="1.0" encoding="UTF-8"?><svg xmlns="http://www.w3.org/2000/svg" viewBox="0 0 51.59 51.59"><defs><style>.cls-1{fill:#322846;fill-rule:evenodd;mix-blend-mode:multiply;stroke-width:0px;}.cls-2{isolation:isolate;}</style></defs><g class="cls-2"><g id="Layer_2"><g id="Layer_1-2"><path class="cls-1" d="M38.69,25.79h-4.3v-4.3h4.3v4.3ZM30.09,17.2h-4.3v-4.3h4.3v4.3ZM34.39,30.09h-4.3v-4.3h4.3v4.3ZM25.79,21.5h-4.3v-4.3h4.3v4.3ZM21.49,25.79h-4.3v-4.3h4.3v4.3ZM17.19,30.09h-4.3v-4.3h4.3v4.3ZM17.19,34.39h-4.3v-4.3h4.3v4.3ZM30.09,34.39h-4.3v-4.3h4.3v4.3ZM25.79,38.69h-4.3v-4.3h4.3v4.3ZM21.49,38.69h-4.3v-4.3h4.3v4.3ZM17.19,42.99h-4.3v-4.3h4.3v4.3ZM12.9,38.69h-4.3v-4.3h4.3v4.3ZM8.6,42.99h-4.3v-4.3h4.3v4.3ZM12.9,47.29h-4.3v-4.3h4.3v4.3ZM21.49,47.29h-4.3v-4.3h4.3v4.3ZM8.6,34.39h-4.3v-4.3h4.3v4.3ZM12.9,42.99h-4.3v-4.3h4.3v4.3ZM8.6,47.29h-4.3v-4.3h4.3v4.3ZM8.6,51.59h-4.3v-4.3h4.3v4.3ZM4.3,47.29H0v-4.3h4.3v4.3ZM4.3,51.59H0v-4.3h4.3v4.3ZM21.49,42.99h-4.3v-4.3h4.3v4.3ZM12.9,34.39h-4.3v-4.3h4.3v4.3ZM17.19,38.69h-4.3v-4.3h4.3v4.3ZM34.39,12.9h-4.3v-4.3h4.3v4.3ZM38.69,8.6h-4.3v-4.3h4.3v4.3ZM42.99,4.3h-4.3V0h4.3v4.3ZM47.29,4.3h-4.3V0h4.3v4.3ZM51.59,4.3h-4.3V0h4.3v4.3ZM47.29,17.2h-4.3v-4.3h4.3v4.3ZM42.99,21.5h-4.3v-4.3h4.3v4.3ZM30.09,47.29h-4.3v-4.3h4.3v4.3ZM12.9,30.09h-4.3v-4.3h4.3v4.3ZM25.79,42.99h-4.3v-4.3h4.3v4.3ZM8.6,30.09h-4.3v-4.3h4.3v4.3ZM25.79,47.29h-4.3v-4.3h4.3v4.3ZM51.59,12.9h-4.3v-4.3h4.3v4.3ZM51.59,8.6h-4.3v-4.3h4.3v4.3ZM30.09,42.99h-4.3v-4.3h4.3v4.3ZM12.9,25.79h-4.3v-4.3h4.3v4.3ZM8.6,25.79h-4.3v-4.3h4.3v4.3Z"/></g></g></g></svg>