<?xml version="1.0" encoding="UTF-8"?><svg xmlns="http://www.w3.org/2000/svg" viewBox="0 0 275.14 275.14"><defs><style>.cls-1{fill:#bb4eac;stroke:#bb4eac;}.cls-1,.cls-2,.cls-3{mix-blend-mode:multiply;stroke-miterlimit:10;stroke-width:.62px;}.cls-2{fill:#66d08f;stroke:#66d08f;}.cls-3{fill:#cfd7cd;stroke:#cfd7cd;}.cls-4{isolation:isolate;}.cls-5{fill:#fff;stroke-width:0px;}</style></defs><g class="cls-4"><g id="Layer_2"><g id="Layer_1-2"><path class="cls-5" d="M264.14,187.98c14.26-14.26,14.26-37.4,0-51.66-7.17-7.17-16.52-10.71-25.87-10.71H36.82c-20.13.07-36.51,16.38-36.51,36.58s16.38,36.51,36.51,36.51h201.45c9.35,0,18.7-3.55,25.87-10.71ZM250.69,149.76c6.83,6.82,6.83,17.95,0,24.77-6.83,6.82-17.94,6.82-24.77,0-6.83-6.82-6.83-17.95,0-24.77,6.83-6.82,17.94-6.82,24.77,0ZM19.35,162.18c0-9.69,7.85-17.54,17.54-17.54s17.54,7.85,17.54,17.54-7.85,17.54-17.54,17.54-17.54-7.85-17.54-17.54Z"/><path class="cls-5" d="M198.06,36.82C198.06,16.62,181.68.31,161.55.31c-10.1,0-19.24,4.09-25.86,10.71L11.01,136.32c-14.26,14.26-14.26,37.4,0,51.66,14.27,14.26,37.4,14.26,51.66,0l124.75-125.29c6.62-6.62,10.71-15.76,10.71-25.86h-.07ZM161.48,19.28c9.69,0,17.54,7.85,17.54,17.54s-7.85,17.54-17.54,17.54-17.54-7.85-17.54-17.54,7.85-17.54,17.54-17.54ZM24.45,174.6c-6.83-6.82-6.83-17.95,0-24.77,6.82-6.82,17.94-6.82,24.77,0,6.83,6.82,6.83,17.95,0,24.77-6.83,6.82-17.95,6.82-24.77,0Z"/><path class="cls-5" d="M187.48,11.01c-14.26-14.26-37.39-14.26-51.66,0-7.17,7.17-10.71,16.51-10.71,25.86v201.45c0,20.2,16.38,36.51,36.51,36.51s36.51-16.38,36.51-36.51V36.8c0-9.35-3.55-18.7-10.71-25.86l.07.07ZM149.27,24.45c6.83-6.82,17.95-6.82,24.77,0,6.83,6.82,6.83,17.95,0,24.77-6.83,6.82-17.95,6.82-24.77,0-6.82-6.82-6.82-17.95,0-24.77ZM161.69,255.79c-9.69,0-17.54-7.85-17.54-17.54s7.85-17.54,17.54-17.54,17.54,7.85,17.54,17.54-7.85,17.54-17.54,17.54Z"/><path class="cls-2" d="M264.14,187.98c14.26-14.26,14.26-37.4,0-51.66-7.17-7.17-16.52-10.71-25.87-10.71H36.82c-20.13.07-36.51,16.38-36.51,36.58s16.38,36.51,36.51,36.51h201.45c9.35,0,18.7-3.55,25.87-10.71ZM250.69,149.76c6.83,6.82,6.83,17.95,0,24.77-6.83,6.82-17.94,6.82-24.77,0-6.83-6.82-6.83-17.95,0-24.77,6.83-6.82,17.94-6.82,24.77,0ZM19.35,162.18c0-9.69,7.85-17.54,17.54-17.54s17.54,7.85,17.54,17.54-7.85,17.54-17.54,17.54-17.54-7.85-17.54-17.54Z"/><path class="cls-1" d="M198.06,36.84C198.06,16.64,181.68.33,161.55.33c-10.1,0-19.24,4.09-25.86,10.71L11.01,136.34c-14.26,14.26-14.26,37.4,0,51.66,14.27,14.26,37.4,14.26,51.66,0l124.75-125.29c6.62-6.62,10.71-15.76,10.71-25.86h-.07ZM161.48,19.3c9.69,0,17.54,7.85,17.54,17.54s-7.85,17.54-17.54,17.54-17.54-7.85-17.54-17.54,7.85-17.54,17.54-17.54ZM24.45,174.62c-6.83-6.82-6.83-17.95,0-24.77,6.82-6.82,17.94-6.82,24.77,0,6.83,6.82,6.83,17.95,0,24.77-6.83,6.82-17.95,6.82-24.77,0Z"/><path class="cls-3" d="M187.48,11.01c-14.26-14.26-37.39-14.26-51.66,0-7.17,7.17-10.71,16.51-10.71,25.86v201.45c0,20.2,16.38,36.51,36.51,36.51s36.51-16.38,36.51-36.51V36.8c0-9.35-3.55-18.7-10.71-25.86l.07.07ZM149.27,24.45c6.83-6.82,17.95-6.82,24.77,0,6.83,6.82,6.83,17.95,0,24.77-6.83,6.82-17.95,6.82-24.77,0-6.82-6.82-6.82-17.95,0-24.77ZM161.69,255.79c-9.69,0-17.54-7.85-17.54-17.54s7.85-17.54,17.54-17.54,17.54,7.85,17.54,17.54-7.85,17.54-17.54,17.54Z"/><circle class="cls-5" cx="161.69" cy="36.82" r="17.54"/><circle class="cls-5" cx="36.84" cy="162.15" r="17.54"/><circle class="cls-5" cx="238.31" cy="162.15" r="17.54"/><circle class="cls-5" cx="161.69" cy="238.26" r="17.54"/></g></g></g></svg>