<?xml version="1.0" encoding="UTF-8"?><svg xmlns="http://www.w3.org/2000/svg" viewBox="0 0 274.52 274.52"><defs><style>.cls-1{fill:#bb4eac;}.cls-1,.cls-2,.cls-3{mix-blend-mode:multiply;}.cls-1,.cls-2,.cls-3,.cls-4{stroke-width:0px;}.cls-2{fill:#66d08f;}.cls-3{fill:#404d92;}.cls-5{isolation:isolate;}.cls-4{fill:#fff;}</style></defs><g class="cls-5"><g id="Layer_2"><g id="Layer_1-2"><path class="cls-4" d="M263.83,187.67c14.26-14.26,14.26-37.4,0-51.66-7.17-7.17-16.52-10.71-25.87-10.71H36.51C16.38,125.36,0,141.67,0,161.87s16.38,36.51,36.51,36.51h201.45c9.35,0,18.7-3.55,25.87-10.71ZM250.38,149.45c6.83,6.82,6.83,17.95,0,24.77-6.83,6.82-17.94,6.82-24.77,0-6.83-6.82-6.83-17.95,0-24.77,6.83-6.82,17.94-6.82,24.77,0ZM19.04,161.87c0-9.69,7.85-17.54,17.54-17.54s17.54,7.85,17.54,17.54-7.85,17.54-17.54,17.54-17.54-7.85-17.54-17.54Z"/><path class="cls-4" d="M197.75,36.51c0-20.2-16.38-36.51-36.51-36.51-10.1,0-19.24,4.09-25.86,10.71L10.7,136.01c-14.26,14.26-14.26,37.4,0,51.66,14.27,14.26,37.4,14.26,51.66,0l124.75-125.29c6.62-6.62,10.71-15.76,10.71-25.86h-.07ZM161.17,18.97c9.69,0,17.54,7.85,17.54,17.54s-7.85,17.54-17.54,17.54-17.54-7.85-17.54-17.54,7.85-17.54,17.54-17.54ZM24.14,174.29c-6.83-6.82-6.83-17.95,0-24.77,6.82-6.82,17.94-6.82,24.77,0,6.83,6.82,6.83,17.95,0,24.77-6.83,6.82-17.95,6.82-24.77,0Z"/><path class="cls-4" d="M187.17,10.7c-14.26-14.26-37.39-14.26-51.66,0-7.17,7.17-10.71,16.51-10.71,25.86v201.45c0,20.2,16.38,36.51,36.51,36.51s36.51-16.38,36.51-36.51V36.49c0-9.35-3.55-18.7-10.71-25.86l.07.07ZM148.96,24.14c6.83-6.82,17.95-6.82,24.77,0,6.83,6.82,6.83,17.95,0,24.77-6.83,6.82-17.95,6.82-24.77,0-6.82-6.82-6.82-17.95,0-24.77ZM161.38,255.48c-9.69,0-17.54-7.85-17.54-17.54s7.85-17.54,17.54-17.54,17.54,7.85,17.54,17.54-7.85,17.54-17.54,17.54Z"/><path class="cls-2" d="M263.83,187.67c14.26-14.26,14.26-37.4,0-51.66-7.17-7.17-16.52-10.71-25.87-10.71H36.51C16.38,125.36,0,141.67,0,161.87s16.38,36.51,36.51,36.51h201.45c9.35,0,18.7-3.55,25.87-10.71ZM250.38,149.45c6.83,6.82,6.83,17.95,0,24.77-6.83,6.82-17.94,6.82-24.77,0-6.83-6.82-6.83-17.95,0-24.77,6.83-6.82,17.94-6.82,24.77,0ZM19.04,161.87c0-9.69,7.85-17.54,17.54-17.54s17.54,7.85,17.54,17.54-7.85,17.54-17.54,17.54-17.54-7.85-17.54-17.54Z"/><path class="cls-1" d="M197.75,36.53C197.75,16.33,181.37.02,161.24.02c-10.1,0-19.24,4.09-25.86,10.71L10.7,136.03c-14.26,14.26-14.26,37.4,0,51.66,14.27,14.26,37.4,14.26,51.66,0l124.75-125.29c6.62-6.62,10.71-15.76,10.71-25.86h-.07ZM161.17,18.99c9.69,0,17.54,7.85,17.54,17.54s-7.85,17.54-17.54,17.54-17.54-7.85-17.54-17.54,7.85-17.54,17.54-17.54ZM24.14,174.31c-6.83-6.82-6.83-17.95,0-24.77,6.82-6.82,17.94-6.82,24.77,0,6.83,6.82,6.83,17.95,0,24.77-6.83,6.82-17.95,6.82-24.77,0Z"/><path class="cls-3" d="M187.17,10.7c-14.26-14.26-37.39-14.26-51.66,0-7.17,7.17-10.71,16.51-10.71,25.86v201.45c0,20.2,16.38,36.51,36.51,36.51s36.51-16.38,36.51-36.51V36.49c0-9.35-3.55-18.7-10.71-25.86l.07.07ZM148.96,24.14c6.83-6.82,17.95-6.82,24.77,0,6.83,6.82,6.83,17.95,0,24.77-6.83,6.82-17.95,6.82-24.77,0-6.82-6.82-6.82-17.95,0-24.77ZM161.38,255.48c-9.69,0-17.54-7.85-17.54-17.54s7.85-17.54,17.54-17.54,17.54,7.85,17.54,17.54-7.85,17.54-17.54,17.54Z"/><circle class="cls-4" cx="161.38" cy="36.51" r="17.54"/><circle class="cls-4" cx="36.53" cy="161.84" r="17.54"/><circle class="cls-4" cx="238" cy="161.84" r="17.54"/><circle class="cls-4" cx="161.38" cy="237.95" r="17.54"/></g></g></g></svg>