<?xml version="1.0" encoding="UTF-8"?><svg xmlns="http://www.w3.org/2000/svg" viewBox="0 0 1127.29 274.52"><defs><style>.cls-1{fill:#bb4eac;}.cls-1,.cls-2,.cls-3{mix-blend-mode:multiply;}.cls-1,.cls-2,.cls-3,.cls-4,.cls-5{stroke-width:0px;}.cls-2{fill:#66d08f;}.cls-3{fill:#404d92;}.cls-6{isolation:isolate;}.cls-4{fill:#322846;}.cls-5{fill:#fff;}</style></defs><g class="cls-6"><g id="Layer_2"><g id="Layer_1-2"><path class="cls-4" d="M90.09,125.86l-14.77,40.31L37.58,56.01H0l59.69,149.77h29.14l23.6-58.6,23.83,58.6h28.91l59.85-149.77h-37.74l-37.58,110.08-15.16-40.31,25.16-69.53h-32.03l-15.16,47.89-15.24-47.89h-31.88l24.69,69.61ZM272.77,205.78V56.01h-34.61v149.77h34.61ZM404.34,205.78h28.67v-78.28h-57.82v25.08h29.14v4.61c-10.86,12.5-22.97,18.75-36.49,18.75-5.94,0-11.25-1.09-16.17-3.36-4.84-2.27-9.06-5.39-12.58-9.38-3.52-3.98-6.25-8.75-8.2-14.22-1.95-5.47-2.97-11.48-2.97-17.97s.94-12.27,2.73-17.74c1.8-5.47,4.45-10.31,7.81-14.45,3.36-4.14,7.42-7.34,12.11-9.69,4.69-2.34,9.92-3.52,15.7-3.52,7.42,0,14.38,1.88,20.78,5.62,6.41,3.75,11.25,8.98,14.69,15.7l25.71-19.38c-5.24-10.16-12.97-18.13-23.44-23.91-10.39-5.86-22.58-8.75-36.49-8.75-10.55,0-20.39,1.95-29.54,5.94-9.14,3.91-17.03,9.3-23.75,16.02-6.64,6.72-11.95,14.69-15.7,23.83-3.83,9.14-5.7,18.83-5.7,29.14,0,11.41,1.88,21.8,5.7,31.33,3.83,9.45,8.99,17.58,15.47,24.38,6.56,6.72,14.14,12.03,22.89,15.7,8.75,3.67,17.97,5.55,27.82,5.55,14.92,0,28.05-5.23,39.46-15.78v14.77h.16ZM551.39,200.7c9.14-4.22,17.03-9.84,23.6-16.8,6.64-6.95,11.8-15,15.47-24.14,3.75-9.14,5.63-18.67,5.63-28.52s-1.72-18.67-5.24-27.81c-3.52-9.14-8.52-17.27-15-24.45-6.48-7.19-14.3-12.97-23.44-17.27-9.14-4.38-19.3-6.56-30.39-6.56s-20.78,2.11-29.93,6.25c-9.14,4.14-17.03,9.69-23.75,16.64-6.64,6.95-11.88,15-15.63,24.14-3.75,9.14-5.63,18.67-5.63,28.44s1.8,19.14,5.39,28.28c3.59,9.14,8.59,17.27,15.08,24.38,6.49,7.11,14.3,12.81,23.44,17.19,9.14,4.37,19.3,6.56,30.39,6.56s20.78-2.11,29.93-6.33h.08ZM484.82,114.53c1.64-5.39,4.06-10.23,7.42-14.45,3.28-4.22,7.34-7.66,12.27-10.24,4.84-2.58,10.55-3.91,17.19-3.91s11.95,1.25,16.8,3.67c4.84,2.5,8.99,5.78,12.35,9.92,3.36,4.14,5.94,8.91,7.58,14.38,1.72,5.39,2.5,11.02,2.5,16.8s-.78,11.17-2.42,16.56c-1.64,5.39-4.06,10.23-7.27,14.53-3.2,4.3-7.34,7.73-12.27,10.47-4.92,2.66-10.7,3.98-17.27,3.98s-11.95-1.25-16.88-3.83c-4.92-2.5-9.06-5.94-12.35-10.16-3.28-4.22-5.78-9.06-7.5-14.45-1.72-5.39-2.5-11.02-2.5-16.8s.78-11.17,2.42-16.56l-.08.08Z"/><path class="cls-4" d="M984.46,205.94V56.17h-34.61v149.77h34.61ZM1127.29,56.17h-125.96v30.39h45.79v119.38h34.61v-119.38h45.55v-30.39Z"/><path class="cls-5" d="M897.1,187.67c14.26-14.26,14.26-37.4,0-51.66-7.17-7.17-16.52-10.71-25.87-10.71h-201.45c-20.13.07-36.51,16.38-36.51,36.58s16.38,36.51,36.51,36.51h201.45c9.35,0,18.7-3.55,25.87-10.71ZM883.65,149.45c6.83,6.82,6.83,17.95,0,24.77-6.83,6.82-17.94,6.82-24.77,0-6.83-6.82-6.83-17.95,0-24.77,6.83-6.82,17.94-6.82,24.77,0ZM652.31,161.87c0-9.69,7.85-17.54,17.54-17.54s17.54,7.85,17.54,17.54-7.85,17.54-17.54,17.54-17.54-7.85-17.54-17.54Z"/><path class="cls-5" d="M831.02,36.51c0-20.2-16.38-36.51-36.51-36.51-10.1,0-19.24,4.09-25.86,10.71l-124.68,125.29c-14.26,14.26-14.26,37.4,0,51.66,14.27,14.26,37.4,14.26,51.66,0l124.75-125.29c6.62-6.62,10.71-15.76,10.71-25.86h-.07ZM794.44,18.97c9.69,0,17.54,7.85,17.54,17.54s-7.85,17.54-17.54,17.54-17.54-7.85-17.54-17.54,7.85-17.54,17.54-17.54ZM657.42,174.29c-6.83-6.82-6.83-17.95,0-24.77,6.82-6.82,17.94-6.82,24.77,0,6.83,6.82,6.83,17.95,0,24.77-6.83,6.82-17.95,6.82-24.77,0Z"/><path class="cls-5" d="M820.44,10.7c-14.26-14.26-37.39-14.26-51.66,0-7.17,7.17-10.71,16.51-10.71,25.86v201.45c0,20.2,16.38,36.51,36.51,36.51s36.51-16.38,36.51-36.51V36.49c0-9.35-3.55-18.7-10.71-25.86l.07.07ZM782.23,24.14c6.83-6.82,17.95-6.82,24.77,0,6.83,6.82,6.83,17.95,0,24.77-6.83,6.82-17.95,6.82-24.77,0-6.82-6.82-6.82-17.95,0-24.77ZM794.65,255.48c-9.69,0-17.54-7.85-17.54-17.54s7.85-17.54,17.54-17.54,17.54,7.85,17.54,17.54-7.85,17.54-17.54,17.54Z"/><path class="cls-2" d="M897.1,187.67c14.26-14.26,14.26-37.4,0-51.66-7.17-7.17-16.52-10.71-25.87-10.71h-201.45c-20.13.07-36.51,16.38-36.51,36.58s16.38,36.51,36.51,36.51h201.45c9.35,0,18.7-3.55,25.87-10.71ZM883.65,149.45c6.83,6.82,6.83,17.95,0,24.77-6.83,6.82-17.94,6.82-24.77,0-6.83-6.82-6.83-17.95,0-24.77,6.83-6.82,17.94-6.82,24.77,0ZM652.31,161.87c0-9.69,7.85-17.54,17.54-17.54s17.54,7.85,17.54,17.54-7.85,17.54-17.54,17.54-17.54-7.85-17.54-17.54Z"/><path class="cls-1" d="M831.02,36.53C831.02,16.33,814.65.02,794.51.02c-10.1,0-19.24,4.09-25.86,10.71l-124.68,125.29c-14.26,14.26-14.26,37.4,0,51.66,14.27,14.26,37.4,14.26,51.66,0l124.75-125.29c6.62-6.62,10.71-15.76,10.71-25.86h-.07ZM794.44,18.99c9.69,0,17.54,7.85,17.54,17.54s-7.85,17.54-17.54,17.54-17.54-7.85-17.54-17.54,7.85-17.54,17.54-17.54ZM657.42,174.31c-6.83-6.82-6.83-17.95,0-24.77,6.82-6.82,17.94-6.82,24.77,0,6.83,6.82,6.83,17.95,0,24.77-6.83,6.82-17.95,6.82-24.77,0Z"/><path class="cls-3" d="M820.44,10.7c-14.26-14.26-37.39-14.26-51.66,0-7.17,7.17-10.71,16.51-10.71,25.86v201.45c0,20.2,16.38,36.51,36.51,36.51s36.51-16.38,36.51-36.51V36.49c0-9.35-3.55-18.7-10.71-25.86l.07.07ZM782.23,24.14c6.83-6.82,17.95-6.82,24.77,0,6.83,6.82,6.83,17.95,0,24.77-6.83,6.82-17.95,6.82-24.77,0-6.82-6.82-6.82-17.95,0-24.77ZM794.65,255.48c-9.69,0-17.54-7.85-17.54-17.54s7.85-17.54,17.54-17.54,17.54,7.85,17.54,17.54-7.85,17.54-17.54,17.54Z"/><circle class="cls-5" cx="794.65" cy="36.51" r="17.54"/><circle class="cls-5" cx="669.8" cy="161.84" r="17.54"/><circle class="cls-5" cx="871.27" cy="161.84" r="17.54"/><circle class="cls-5" cx="794.65" cy="237.95" r="17.54"/></g></g></g></svg>