<?xml version="1.0" encoding="UTF-8"?><svg xmlns="http://www.w3.org/2000/svg" viewBox="0 0 49.29 49.29"><defs><style>.cls-1{fill:#322846;fill-rule:evenodd;mix-blend-mode:multiply;stroke-width:0px;}.cls-2{isolation:isolate;}</style></defs><g class="cls-2"><g id="Layer_2"><g id="Layer_1-2"><path class="cls-1" d="M31.37,4.48h4.48V0h-4.48v4.48ZM26.88,4.48h4.48V0h-4.48v4.48ZM22.4,4.48h4.48V0h-4.48v4.48ZM17.92,4.48h4.48V0h-4.48v4.48ZM13.44,4.48h4.48V0h-4.48v4.48ZM8.96,8.96h4.48v-4.48h-4.48v4.48ZM4.48,13.44h4.48v-4.48h-4.48v4.48ZM0,17.92h4.48v-4.48H0v4.48ZM0,22.4h4.48v-4.48H0v4.48ZM0,26.89h4.48v-4.48H0v4.48ZM0,31.37h4.48v-4.48H0v4.48ZM0,35.85h4.48v-4.48H0v4.48ZM4.48,40.33h4.48v-4.48h-4.48v4.48ZM8.96,44.81h4.48v-4.48h-4.48v4.48ZM13.44,49.29h4.48v-4.48h-4.48v4.48ZM17.92,49.29h4.48v-4.48h-4.48v4.48ZM22.4,49.29h4.48v-4.48h-4.48v4.48ZM26.88,49.29h4.48v-4.48h-4.48v4.48ZM31.37,49.29h4.48v-4.48h-4.48v4.48ZM35.85,44.81h4.48v-4.48h-4.48v4.48ZM40.33,40.33h4.48v-4.48h-4.48v4.48ZM44.81,35.85h4.48v-4.48h-4.48v4.48ZM44.81,31.37h4.48v-4.48h-4.48v4.48ZM44.81,26.89h4.48v-4.48h-4.48v4.48ZM44.81,22.4h4.48v-4.48h-4.48v4.48ZM44.81,17.92h4.48v-4.48h-4.48v4.48ZM40.33,13.44h4.48v-4.48h-4.48v4.48ZM35.85,8.96h4.48v-4.48h-4.48v4.48ZM4.48,22.4h4.48v-4.48h-4.48v4.48ZM13.44,22.4h4.48v-4.48h-4.48v4.48ZM8.96,22.4h4.48v-4.48h-4.48v4.48ZM8.96,17.92h4.48v-4.48h-4.48v4.48ZM4.48,17.92h4.48v-4.48h-4.48v4.48ZM13.44,17.92h4.48v-4.48h-4.48v4.48ZM13.44,13.44h4.48v-4.48h-4.48v4.48ZM17.92,8.96h4.48v-4.48h-4.48v4.48ZM13.44,8.96h4.48v-4.48h-4.48v4.48ZM8.96,13.44h4.48v-4.48h-4.48v4.48ZM4.48,35.85h4.48v-4.48h-4.48v4.48ZM40.33,22.4h4.48v-4.48h-4.48v4.48ZM35.85,22.4h4.48v-4.48h-4.48v4.48ZM31.36,26.89h4.48v-4.48h-4.48v4.48ZM31.36,31.37h4.48v-4.48h-4.48v4.48ZM35.85,35.85h4.48v-4.48h-4.48v4.48ZM40.33,35.85h4.48v-4.48h-4.48v4.48ZM40.33,31.37h4.48v-4.48h-4.48v4.48ZM40.33,26.89h4.48v-4.48h-4.48v4.48ZM35.85,26.89h4.48v-4.48h-4.48v4.48ZM35.85,31.37h4.48v-4.48h-4.48v4.48ZM35.85,13.44h4.48v-4.48h-4.48v4.48ZM35.85,17.92h4.48v-4.48h-4.48v4.48ZM31.36,13.44h4.48v-4.48h-4.48v4.48ZM31.36,8.96h4.48v-4.48h-4.48v4.48ZM26.88,13.44h4.48v-4.48h-4.48v4.48ZM31.36,17.92h4.48v-4.48h-4.48v4.48ZM8.96,35.85h4.48v-4.48h-4.48v4.48ZM13.44,40.33h4.48v-4.48h-4.48v4.48ZM13.44,44.81h4.48v-4.48h-4.48v4.48ZM8.96,40.33h4.48v-4.48h-4.48v4.48ZM13.44,26.89h4.48v-4.48h-4.48v4.48ZM17.92,26.89h4.48v-4.48h-4.48v4.48Z"/></g></g></g></svg>