<?xml version="1.0" encoding="UTF-8"?><svg id="Layer_2" xmlns="http://www.w3.org/2000/svg" viewBox="0 0 60.33 42.23"><defs><style>.cls-1{fill:#322846;stroke-width:0px;}</style></defs><g id="Layer_1-2"><path class="cls-1" d="M21.11,0h24.13v3.02h-24.13V0Z"/><path class="cls-1" d="M45.25,3.02h3.02v3.02h-3.02v-3.02Z"/><path class="cls-1" d="M18.1,18.1V6.03h-3.02v9.05H6.03v3.02h12.07Z"/><path class="cls-1" d="M3.02,33.18h6.03v3.02H3.02v-3.02Z"/><path class="cls-1" d="M21.11,33.18h18.1v3.02h-18.1v-3.02Z"/><path class="cls-1" d="M3.02,18.1h3.02v3.02h-3.02v-3.02Z"/><path class="cls-1" d="M3.02,27.15h6.03v-3.02H3.02v-3.02H0v12.07h3.02v-6.03Z"/><path class="cls-1" d="M51.28,33.18h6.03v3.02h-6.03v-3.02Z"/><path class="cls-1" d="M54.29,18.1h3.02v3.02h-3.02v-3.02Z"/><path class="cls-1" d="M57.31,21.11v3.02h-3.02v3.02h3.02v6.03h3.02v-12.07h-3.02Z"/><path class="cls-1" d="M48.26,18.1h6.03v-3.02h-3.02V6.03h-3.02v12.07Z"/><path class="cls-1" d="M18.1,3.02h3.02v3.02h-3.02v-3.02Z"/><path class="cls-1" d="M24.13,6.03h18.1v3.02h-18.1v-3.02Z"/><path class="cls-1" d="M39.21,21.11h6.03v3.02h-6.03v-3.02Z"/><path class="cls-1" d="M9.05,30.16h3.02v3.02h-3.02v-3.02Z"/><path class="cls-1" d="M12.07,27.15h6.03v3.02h-6.03v-3.02Z"/><path class="cls-1" d="M18.1,30.16h3.02v3.02h-3.02v-3.02Z"/><path class="cls-1" d="M9.05,36.2h3.02v3.02h-3.02v-3.02Z"/><path class="cls-1" d="M12.07,39.21h6.03v3.02h-6.03v-3.02Z"/><path class="cls-1" d="M18.1,36.2h3.02v3.02h-3.02v-3.02Z"/><path class="cls-1" d="M39.21,30.16h3.02v3.02h-3.02v-3.02Z"/><path class="cls-1" d="M42.23,27.15h6.03v3.02h-6.03v-3.02Z"/><path class="cls-1" d="M48.26,30.16h3.02v3.02h-3.02v-3.02Z"/><path class="cls-1" d="M39.21,36.2h3.02v3.02h-3.02v-3.02Z"/><path class="cls-1" d="M42.23,39.21h6.03v3.02h-6.03v-3.02Z"/><path class="cls-1" d="M48.26,36.2h3.02v3.02h-3.02v-3.02Z"/><path class="cls-1" d="M42.23,15.08h-18.1v-6.03h-3.02v9.05h24.13v-9.05h-3.02v6.03Z"/></g></svg>