<?xml version="1.0" encoding="UTF-8"?><svg id="Layer_2" xmlns="http://www.w3.org/2000/svg" viewBox="0 0 39.62 44.03"><defs><style>.cls-1{fill:#322846;stroke-width:0px;}</style></defs><g id="Layer_1-2"><path class="cls-1" d="M0,6.6h2.2v4.4H0v-4.4Z"/><path class="cls-1" d="M2.2,4.4h2.2v2.2h-2.2v-2.2Z"/><path class="cls-1" d="M17.61,2.2h2.2v2.2h-2.2v-2.2Z"/><path class="cls-1" d="M4.4,2.2h2.2v2.2h-2.2v-2.2Z"/><path class="cls-1" d="M6.6,0h4.4v2.2h-4.4V0Z"/><path class="cls-1" d="M11.01,2.2h2.2v2.2h-2.2v-2.2Z"/><path class="cls-1" d="M13.21,0h4.4v2.2h-4.4V0Z"/><path class="cls-1" d="M19.81,0h4.4v2.2h-4.4V0Z"/><path class="cls-1" d="M24.21,2.2h2.2v2.2h-2.2v-2.2Z"/><path class="cls-1" d="M26.41,4.4h4.4v2.2h-4.4v-2.2Z"/><path class="cls-1" d="M30.82,6.6h2.2v4.4h-2.2v-4.4Z"/><path class="cls-1" d="M37.42,19.81v-2.2h-2.2v-2.2h-4.4v-4.4h-6.6v2.2h-2.2v-2.2h-4.4v2.2h-2.2v-2.2h-4.4v2.2h-2.2v-2.2H2.2v26.42h2.2v4.4h2.2v2.2h19.81v-2.2h2.2v-4.4h2.2v-2.2h4.4v-2.2h2.2v-2.2h2.2v-11.01h-2.2ZM11.01,35.22h-2.2v-15.41h2.2v15.41ZM17.61,35.22h-2.2v-15.41h2.2v15.41ZM24.21,35.22h-2.2v-15.41h2.2v15.41ZM35.22,30.82h-4.4v-11.01h4.4v11.01Z"/></g></svg>