<?xml version="1.0" encoding="UTF-8"?><svg id="Layer_2" xmlns="http://www.w3.org/2000/svg" viewBox="0 0 48.81 65.83"><defs><style>.cls-1{fill:#322846;stroke-width:0px;}</style></defs><g id="Layer_1-2"><path class="cls-1" d="M2.56,17.33h2.25v2.25h-2.25v-2.25Z"/><path class="cls-1" d="M4.81,14.45h2.56v2.89h-2.56v-2.89Z"/><path class="cls-1" d="M2.56,2.56h2.25v2.25h-2.25v-2.25Z"/><path class="cls-1" d="M4.81,4.81h2.56v2.56h-2.56v-2.56Z"/><path class="cls-1" d="M2.4,9.63h2.41v2.89H0v-2.89h2.4Z"/><path class="cls-1" d="M12.19,19.54v2.62h-2.56v-4.83h2.56v2.21Z"/><path class="cls-1" d="M9.63,9.63h2.56v2.89h-2.56v-2.89Z"/><path class="cls-1" d="M12.19,2.5v2.32h-2.56V0h2.56v2.5Z"/><path class="cls-1" d="M12.19,12.52h2.25v1.92h-2.25v-1.92Z"/><path class="cls-1" d="M14.44,14.45h2.56v2.89h-2.56v-2.89Z"/><path class="cls-1" d="M19.57,12.52h4.83v1.93h-7.39v-1.93h2.57Z"/><path class="cls-1" d="M26.96,17.18v2.4h-2.56v-5.13h2.56v2.73Z"/><path class="cls-1" d="M26.96,19.58h2.25v2.56h-2.25v-2.56Z"/><path class="cls-1" d="M46.23,41.42v-4.81h-2.25v-2.57h-2.56v-2.25h-4.81v-5.14h-4.81v-4.48h-2.58v4.48h-4.81v5.14h-4.81v2.25h-2.58s0,2.56,0,2.56h-2.56v4.82h-2.25v12.21h2.25v4.81h2.56v2.58h2.58v2.25h4.81s0,2.56,0,2.56h12.21v-2.56h4.81v-2.25h2.56v-2.58h2.25v-4.81h2.58v-12.2h-2.58ZM27.03,43.67h-2.63s0,2.58,0,2.58h-4.81v-2.58h-2.25v-4.81h2.25v-2.25h4.81v2.25h2.56l.07,4.81Z"/></g></svg>