<?xml version="1.0" encoding="UTF-8"?><svg id="Layer_2" xmlns="http://www.w3.org/2000/svg" viewBox="0 0 51.48 47.62"><defs><style>.cls-1{fill:#322846;stroke-width:0px;}</style></defs><g id="Layer_1-2"><path class="cls-1" d="M27.03,29.6v-1.29h2.57v-2.57h-2.57V2.57h2.57V0h-5.15v29.6H0v5.15h2.57v-2.57h46.33v2.57h2.57v-5.15h-24.45Z"/><path class="cls-1" d="M2.57,34.75h2.57v5.15h-2.57v-5.15Z"/><path class="cls-1" d="M46.33,34.75h2.57v5.15h-2.57v-5.15Z"/><path class="cls-1" d="M5.15,39.9h2.57v2.57h-2.57v-2.57Z"/><path class="cls-1" d="M43.76,39.9h2.57v2.57h-2.57v-2.57Z"/><path class="cls-1" d="M7.72,42.47h2.57v2.57h-2.57v-2.57Z"/><path class="cls-1" d="M41.18,42.47h2.57v2.57h-2.57v-2.57Z"/><path class="cls-1" d="M10.3,45.04h30.89v2.57H10.3v-2.57Z"/><path class="cls-1" d="M29.6,2.57h2.57v2.57h-2.57v-2.57Z"/><path class="cls-1" d="M32.17,5.15h2.57v2.57h-2.57v-2.57Z"/><path class="cls-1" d="M34.75,7.72h2.57v2.57h-2.57v-2.57Z"/><path class="cls-1" d="M37.32,10.3h2.57v2.57h-2.57v-2.57Z"/><path class="cls-1" d="M39.9,12.87h2.57v2.57h-2.57v-2.57Z"/><path class="cls-1" d="M37.32,15.44h2.57v2.57h-2.57v-2.57Z"/><path class="cls-1" d="M34.75,18.02h2.57v2.57h-2.57v-2.57Z"/><path class="cls-1" d="M32.17,20.59h2.57v2.57h-2.57v-2.57Z"/><path class="cls-1" d="M29.6,23.17h2.57v2.57h-2.57v-2.57Z"/></g></svg>