<?xml version="1.0" encoding="UTF-8"?><svg id="Layer_2" xmlns="http://www.w3.org/2000/svg" viewBox="0 0 42.47 57.91"><defs><style>.cls-1{fill:#322846;stroke-width:0px;}</style></defs><g id="Layer_1-2"><path class="cls-1" d="M3.86,38.61v-7.72H0v15.44h3.86v-7.72Z"/><path class="cls-1" d="M30.89,23.17h3.86v-7.72h-3.86v7.72Z"/><path class="cls-1" d="M27.03,15.44h3.86v-7.72h-3.86v7.72Z"/><path class="cls-1" d="M7.72,50.19h3.86v3.86h-3.86v-3.86Z"/><path class="cls-1" d="M23.17,54.05h-11.58v3.86h19.3v-3.86h-7.72Z"/><path class="cls-1" d="M19.3,0h3.86v3.86h-3.86V0Z"/><path class="cls-1" d="M15.44,11.58v-3.86h-3.86v7.72h3.86v-3.86Z"/><path class="cls-1" d="M11.58,19.3v-3.86h-3.86v7.72h3.86v-3.86Z"/><path class="cls-1" d="M7.72,27.03v-3.86h-3.86v7.72h3.86v-3.86Z"/><path class="cls-1" d="M3.86,46.33h3.86v3.86h-3.86v-3.86Z"/><path class="cls-1" d="M15.44,3.86h3.86v3.86h-3.86v-3.86Z"/><path class="cls-1" d="M38.61,30.89v15.44h3.86v-15.44h-3.86Z"/><path class="cls-1" d="M23.17,3.86h3.86v3.86h-3.86v-3.86Z"/><path class="cls-1" d="M34.75,46.33h3.86v3.86h-3.86v-3.86Z"/><path class="cls-1" d="M34.75,30.89h3.86v-7.72h-3.86v7.72Z"/><path class="cls-1" d="M30.89,50.19h3.86v3.86h-3.86v-3.86Z"/></g></svg>