<?xml version="1.0" encoding="UTF-8"?><svg id="Layer_2" xmlns="http://www.w3.org/2000/svg" viewBox="0 0 46.33 43.76"><defs><style>.cls-1{fill:#322846;stroke-width:0px;}</style></defs><g id="Layer_1-2"><path class="cls-1" d="M36.04,5.15h2.57v2.57h-2.57v-2.57Z"/><path class="cls-1" d="M33.46,2.57h2.57v2.57h-2.57v-2.57Z"/><path class="cls-1" d="M23.17,0h10.3v2.57h-10.3V0Z"/><path class="cls-1" d="M20.59,2.57h2.57v2.57h-2.57v-2.57Z"/><path class="cls-1" d="M18.02,5.15h2.57v2.57h-2.57v-2.57Z"/><path class="cls-1" d="M15.44,7.72h2.57v7.72h-2.57v-7.72Z"/><path class="cls-1" d="M18.02,15.44h2.57v2.57h-2.57v-2.57Z"/><path class="cls-1" d="M20.59,18.02h2.57v2.57h-2.57v-2.57Z"/><path class="cls-1" d="M10.3,20.59h10.3v2.57h-10.3v-2.57Z"/><path class="cls-1" d="M5.15,18.02h5.15v2.57h-5.15v-2.57Z"/><path class="cls-1" d="M2.57,15.44h2.57v2.57h-2.57v-2.57Z"/><path class="cls-1" d="M0,18.02h2.57v12.87H0v-12.87Z"/><path class="cls-1" d="M2.57,30.89h2.57v2.57h-2.57v-2.57Z"/><path class="cls-1" d="M5.15,33.46h2.57v2.57h-2.57v-2.57Z"/><path class="cls-1" d="M7.72,36.04h2.57v2.57h-2.57v-2.57Z"/><path class="cls-1" d="M10.3,38.61h2.57v2.57h-2.57v-2.57Z"/><path class="cls-1" d="M12.87,41.18h15.44v2.57h-15.44v-2.57Z"/><path class="cls-1" d="M28.31,38.61h5.15v2.57h-5.15v-2.57Z"/><path class="cls-1" d="M33.46,36.04h2.57v2.57h-2.57v-2.57Z"/><path class="cls-1" d="M36.04,33.46h2.57v2.57h-2.57v-2.57Z"/><path class="cls-1" d="M38.61,25.74h2.57v7.72h-2.57v-7.72Z"/><path class="cls-1" d="M36.04,23.17h2.57v2.57h-2.57v-2.57Z"/><path class="cls-1" d="M33.46,20.59h2.57v2.57h-2.57v-2.57Z"/><path class="cls-1" d="M30.89,18.02h2.57v2.57h-2.57v-2.57Z"/><path class="cls-1" d="M38.61,7.72h2.57v2.57h-2.57v-2.57Z"/><path class="cls-1" d="M41.18,10.3h2.57v2.57h-2.57v-2.57Z"/><path class="cls-1" d="M43.76,12.87h2.57v2.57h-2.57v-2.57Z"/><path class="cls-1" d="M33.46,15.44h10.3v2.57h-10.3v-2.57Z"/><path class="cls-1" d="M28.31,5.15h2.57v2.57h-2.57v-2.57Z"/><path class="cls-1" d="M33.46,7.72h2.57v2.57h-2.57v-2.57Z"/><path class="cls-1" d="M30.89,10.3h2.57v5.15h-2.57v-5.15Z"/><path class="cls-1" d="M23.17,23.17h2.57v2.57h-2.57v-2.57Z"/><path class="cls-1" d="M25.74,25.74h2.57v2.57h-2.57v-2.57Z"/><path class="cls-1" d="M28.31,28.31h2.57v5.15h-2.57v-5.15Z"/><path class="cls-1" d="M15.44,33.46h12.87v2.57h-12.87v-2.57Z"/><path class="cls-1" d="M12.87,30.89h2.57v2.57h-2.57v-2.57Z"/><path class="cls-1" d="M10.3,28.31h2.57v2.57h-2.57v-2.57Z"/></g></svg>