<?xml version="1.0" encoding="UTF-8"?><svg id="Layer_2" xmlns="http://www.w3.org/2000/svg" viewBox="0 0 57.92 45.05"><defs><style>.cls-1{fill:#322846;stroke-width:0px;}</style></defs><g id="Layer_1-2"><path class="cls-1" d="M12.87,0h32.17v6.44H12.87V0Z"/><path class="cls-1" d="M0,12.87h6.44v19.3H0V12.87Z"/><path class="cls-1" d="M32.17,12.88h6.44v12.86h-6.44v-12.86Z"/><path class="cls-1" d="M19.3,12.88h6.44v12.86h-6.44v-12.86Z"/><path class="cls-1" d="M51.48,12.88h6.44v19.29h-6.44V12.88Z"/><path class="cls-1" d="M6.43,6.44h6.44v6.44h-6.44v-6.44Z"/><path class="cls-1" d="M6.43,32.18h6.44v6.44h-6.44v-6.44Z"/><path class="cls-1" d="M45.05,6.43h6.44v6.44h-6.44v-6.44Z"/><path class="cls-1" d="M51.48,38.61h-6.44v-6.43s6.44,0,6.44,0v6.44Z"/><path class="cls-1" d="M12.87,38.61h32.17v6.44H12.87v-6.44Z"/></g></svg>