<?xml version="1.0" encoding="UTF-8"?><svg id="Layer_2" xmlns="http://www.w3.org/2000/svg" viewBox="0 0 57.92 57.91"><defs><style>.cls-1{fill:#322846;stroke-width:0px;}</style></defs><g id="Layer_1-2"><path class="cls-1" d="M32.17,6.43h6.44v25.74h-6.44V6.43Z"/><path class="cls-1" d="M19.31,6.43h6.44v25.74h-6.44V6.43Z"/><path class="cls-1" d="M12.87,0h32.17v6.43H12.87V0Z"/><path class="cls-1" d="M12.87,32.17h6.44v6.43h-6.44v-6.43Z"/><path class="cls-1" d="M6.44,38.61h6.44v6.43h-6.44v-6.43Z"/><path class="cls-1" d="M45.05,38.61h-6.44v-6.43h6.44v6.43Z"/><path class="cls-1" d="M38.62,45.04h-6.44v-6.43h6.44v6.43Z"/><path class="cls-1" d="M51.48,45.04h-6.44v-6.43h6.44v6.43Z"/><path class="cls-1" d="M51.48,45.04v6.43H6.44v-6.43H0v6.43h0v6.43h57.91v-6.43h0v-6.43h-6.44Z"/></g></svg>