<?xml version="1.0" encoding="UTF-8"?><svg id="Layer_2" xmlns="http://www.w3.org/2000/svg" viewBox="0 0 36.2 50.27"><defs><style>.cls-1{fill:#322846;stroke-width:0px;}</style></defs><g id="Layer_1-2"><path class="cls-1" d="M28.15,42.23h4.02v2.01h-8.04v-2.01h4.02ZM12.07,50.27v-6.03h2.01v-2.01h-4.02v8.04h2.01ZM34.19,40.22h-2.01v2.01h2.01v8.04h2.01V12.07h-2.01v28.15ZM32.17,10.05h-2.01v-4.02h-2.01v16.09h2.01v-10.05h4.02v-2.01h-2.01ZM26.14,4.02h-2.01v-2.01h-2.01v18.1h2.01V6.03h4.02v-2.01h-2.01ZM16.09,16.09h-2.01v2.01h2.01v4.02h2.01V2.01h-2.01v14.08ZM20.11,0h-2.01v2.01h4.02V0h-2.01ZM6.03,14.08v2.01h8.04v-2.01H6.03ZM4.02,18.1h2.01v-2.01h-2.01v2.01ZM6.03,40.22v-2.01h-2.01v2.01h2.01ZM8.04,42.23h2.01v-2.01h-4.02v2.01h2.01ZM12.07,20.11h-4.02v2.01h4.02v-2.01ZM8.04,34.19h4.02v-2.01h-4.02v2.01ZM2.01,20.11h2.01v-2.01h-2.01v2.01ZM4.02,38.21v-2.01h-2.01v2.01h2.01ZM0,26.14h2.01v-6.03H0v6.03ZM0,36.2h2.01v-8.04H0v8.04ZM8.04,22.12h-2.01v4.02h2.01v-4.02ZM6.03,28.15v4.02h2.01v-4.02h-2.01ZM14.08,32.17v-10.05h-2.01v10.05h2.01ZM6.03,28.15v-2.01H2.01v2.01h4.02Z"/></g></svg>