<?xml version="1.0" encoding="UTF-8"?><svg id="Layer_2" xmlns="http://www.w3.org/2000/svg" viewBox="0 0 42.23 60.33"><defs><style>.cls-1{fill:#322846;stroke-width:0px;}</style></defs><g id="Layer_1-2"><path class="cls-1" d="M39.21,3.02h3.02v54.29h-3.02V3.02Z"/><path class="cls-1" d="M0,3.02h3.02v54.29H0V3.02Z"/><path class="cls-1" d="M6.03,9.05h3.02v18.1h-3.02V9.05Z"/><path class="cls-1" d="M33.18,9.05h3.02v18.1h-3.02V9.05Z"/><path class="cls-1" d="M3.02,57.31h36.2v3.02H3.02v-3.02Z"/><path class="cls-1" d="M3.02,0h36.2v3.02H3.02V0Z"/><path class="cls-1" d="M9.05,6.03h24.13v3.02H9.05v-3.02Z"/><path class="cls-1" d="M9.05,27.15h24.13v3.02H9.05v-3.02Z"/><path class="cls-1" d="M12.07,36.2h3.02v3.02h-3.02v-3.02Z"/><path class="cls-1" d="M9.05,39.21h3.02v3.02h-3.02v-3.02Z"/><path class="cls-1" d="M15.08,39.21h3.02v3.02h-3.02v-3.02Z"/><path class="cls-1" d="M12.07,42.23h3.02v3.02h-3.02v-3.02Z"/><path class="cls-1" d="M30.16,36.2h3.02v3.02h-3.02v-3.02Z"/><path class="cls-1" d="M24.13,42.23h3.02v3.02h-3.02v-3.02Z"/><path class="cls-1" d="M15.08,50.27h12.07v3.02h-12.07v-3.02Z"/></g></svg>