<?xml version="1.0" encoding="UTF-8"?><svg id="Layer_2" xmlns="http://www.w3.org/2000/svg" viewBox="0 0 47.96 36.59"><defs><style>.cls-1{fill:#322846;stroke-width:0px;}</style></defs><g id="Layer_1-2"><path class="cls-1" d="M47.73,32.7h-3.91v3.68c-1.1.07-2.21.07-3.32,0v-7.4h7.21c.08.21.08,3.3.01,3.72h0Z"/><path class="cls-1" d="M7.45,7.34c-.42.05-7.04.08-7.45,0v-3.27h3.73V.14h3.69c.07.23.09,6.43.04,7.19h-.01Z"/><path class="cls-1" d="M33.41,7.34s-.08,0-.12,0H14.99h0s-.08,0-.12,0l-.05.05v3.47h-3.59s0-3.52,0-3.52c-.39-.07-3.47-.04-3.78,0v3.54h3.75c.06.31.06,14.23,0,14.47h-3.78v3.78H.17v3.73h3.93v2.81c-.02.3-.02.61,0,.91h3.32v-7.43h3.78v-3.78c.45-.05,3.55-.04,3.77,0v7.37h3.5v-3.52h3.58v3.54c.57.05,3.86,0,4.09-.04v-3.44h3.47v3.47c.38.07,3.78.04,4.01,0v-7.4h3.3v3.6h3.6v-3.6h-3.61v-14.5s-3.51,0-3.51,0v-3.51ZM22.2,21.64h-7.33c-.05-.2-.08-6.43,0-6.85h7.3c.05.21.08,6.34.03,6.85h0ZM33.29,21.82h-7.19v-7.03h7.17c.05.21.08,6.54.01,7.03h0Z"/><path class="cls-1" d="M36.9,7.27h3.6v3.59h-3.6v-3.59Z"/><path class="cls-1" d="M47.92,7.27h-7.42V.05c.21-.07,3.31-.08,3.73,0v3.92h3.68c.07,1.1.07,2.2.01,3.29h0Z"/></g></svg>