<?xml version="1.0" encoding="UTF-8"?><svg id="Layer_2" xmlns="http://www.w3.org/2000/svg" viewBox="0 0 50.27 60.33"><defs><style>.cls-1{fill:#322846;stroke-width:0px;}</style></defs><g id="Layer_1-2"><path class="cls-1" d="M26.14,6.03h-2.01V0h2.01v6.03ZM34.19,6.03h2.01v-2.01h-2.01v2.01ZM36.2,4.02h2.01v-2.01h-2.01v2.01ZM16.09,6.03v-2.01h-2.01v2.01h2.01ZM12.07,2.01v2.01h2.01v-2.01h-2.01ZM40.22,12.07h2.01v-2.01h-2.01v2.01ZM42.23,10.05h2.01v-2.01h-2.01v2.01ZM44.24,8.04h2.01v-2.01h-2.01v2.01ZM10.05,12.07v-2.01h-2.01v2.01h2.01ZM8.04,26.14h-2.01v2.01h2.01v-2.01ZM42.23,26.14v2.01h2.01v-2.01h-2.01ZM48.26,32.17v-2.01h-2.01v2.01h2.01ZM44.24,28.15v2.01h2.01v-2.01h-2.01ZM6.03,28.15h-2.01v2.01h2.01v-2.01ZM4.02,30.16h-2.01v2.01h2.01v-2.01ZM8.04,10.05v-2.01h-2.01v2.01h2.01ZM6.03,6.03h-2.01v2.01h2.01v-2.01ZM48.26,18.1h-6.03v2.01h6.03v-2.01ZM8.04,18.1H2.01v2.01h6.03v-2.01ZM16.09,10.05v2.01h4.02v-2.01h-4.02ZM20.11,12.07v18.1h-2.01v2.01h4.02V12.07h-2.01ZM14.08,24.13h2.01v-12.07h-2.01v12.07ZM12.07,32.17h2.01v-8.04h-2.01v8.04ZM10.05,40.22h2.01v-8.04h-2.01v8.04ZM22.12,46.25h2.01v-14.08h-2.01v14.08ZM20.11,50.27h2.01v-4.02h-2.01v4.02ZM18.1,52.28h2.01v-2.01h-2.01v2.01ZM8.04,42.23h2.01v-2.01h-2.01v2.01ZM6.03,44.24h2.01v-2.01h-2.01v2.01ZM4.02,46.25h2.01v-2.01h-2.01v2.01ZM2.01,48.26h2.01v-2.01h-2.01v2.01ZM0,50.27h2.01v-2.01H0v2.01ZM16.09,54.29h2.01v-2.01h-2.01v2.01ZM14.08,56.31h2.01v-2.01h-2.01v2.01ZM12.07,58.32h2.01v-2.01h-2.01v2.01ZM10.05,60.33h2.01v-2.01h-2.01v2.01ZM16.09,42.23h2.01v-10.05h-2.01v10.05ZM30.16,10.05v2.01h4.02v-2.01h-4.02ZM28.15,32.17h4.02v-2.01h-2.01V12.07h-2.01v20.11ZM34.19,12.07v12.07h2.01v-12.07h-2.01ZM36.2,24.13v8.04h2.01v-8.04h-2.01ZM38.21,32.17v8.04h2.01v-8.04h-2.01ZM26.14,46.25h2.01v-14.08h-2.01v14.08ZM30.16,50.27v-4.02h-2.01v4.02h2.01ZM32.17,52.28v-2.01h-2.01v2.01h2.01ZM40.22,40.22v2.01h2.01v-2.01h-2.01ZM42.23,42.23v2.01h2.01v-2.01h-2.01ZM44.24,44.24v2.01h2.01v-2.01h-2.01ZM46.25,46.25v2.01h2.01v-2.01h-2.01ZM48.26,50.27h2.01v-2.01h-2.01v2.01ZM34.19,54.29v-2.01h-2.01v2.01h2.01ZM36.2,56.31v-2.01h-2.01v2.01h2.01ZM38.21,58.32v-2.01h-2.01v2.01h2.01ZM40.22,60.33v-2.01h-2.01v2.01h2.01ZM34.19,42.23v-10.05h-2.01v10.05h2.01Z"/></g></svg>