<?xml version="1.0" encoding="UTF-8"?><svg id="Layer_2" xmlns="http://www.w3.org/2000/svg" viewBox="0 0 36.2 60.33"><defs><style>.cls-1{fill:#322846;stroke-width:0px;}</style></defs><g id="Layer_1-2"><path class="cls-1" d="M3.02,42.23h3.02v3.02h-3.02v-3.02Z"/><path class="cls-1" d="M33.18,9.05v-3.02h-3.02v-3.02h-6.03V0h-12.07v3.02h-6.03v3.02h-3.02v3.02H0v33.18h3.02v-24.13h3.02v9.05h3.02v3.02h3.02v-3.02h3.02v-6.03h3.02v12.07h3.02v3.02h3.02v-3.02h3.02v-12.07h6.03v21.11h3.02V9.05h-3.02Z"/><path class="cls-1" d="M30.16,42.23h3.02v3.02h-3.02v-3.02Z"/><path class="cls-1" d="M6.03,48.26h6.03v9.05h3.02v-9.05h6.03v9.05h3.02v-9.05h6.03v-3.02H6.03v3.02Z"/><path class="cls-1" d="M15.08,57.31h6.03v3.02h-6.03v-3.02Z"/></g></svg>