<?xml version="1.0" encoding="UTF-8"?><svg id="Layer_2" xmlns="http://www.w3.org/2000/svg" viewBox="0 0 46.13 30.46"><defs><style>.cls-1{fill:#322846;stroke-width:0px;}</style></defs><g id="Layer_1-2"><path class="cls-1" d="M19.92,26.8h-3.81v3.66h-4.54v-4.54h3.81v-2.93h-3.66v-3.37h-3.37v3.66H0v-4.54h4.54v-3.81h7.18v-3.66h3.37v-2.93h-3.66v-3.81h-3.81V0h8.35v3.81h3.66v3.66h6.88v-3.66h3.66V0h8.35v4.54h-3.81v3.81h-3.66v2.93h3.37v3.66h7.32v3.81h4.39v4.54h-8.35v-3.66h-3.37v3.37h-3.51v2.93h3.66v4.54h-4.54v-3.66h-3.81v-3.81h-6.3v3.81h0ZM16.11,15.82v2.78h2.93v-2.78h-2.93ZM27.09,15.82v2.78h2.93v-2.78h-2.93Z"/></g></svg>