<?xml version="1.0" encoding="UTF-8"?><svg id="Layer_2" xmlns="http://www.w3.org/2000/svg" viewBox="0 0 16.85 64.98"><defs><style>.cls-1{fill:#322846;stroke-width:0px;}</style></defs><g id="Layer_1-2"><path class="cls-1" d="M7.22,16.85h2.41v7.22h-2.41v-7.22Z"/><path class="cls-1" d="M7.22,0h2.41v2.41h-2.41V0Z"/><path class="cls-1" d="M4.81,14.44h2.41v2.41h-2.41v-2.41Z"/><path class="cls-1" d="M2.41,4.81h2.41v9.63h-2.41V4.81Z"/><path class="cls-1" d="M12.03,4.81h2.41v9.63h-2.41V4.81Z"/><path class="cls-1" d="M9.63,14.44h2.41v2.41h-2.41v-2.41Z"/><path class="cls-1" d="M4.81,2.41h2.41v2.41h-2.41v-2.41Z"/><path class="cls-1" d="M9.63,2.41h2.41v2.41h-2.41v-2.41Z"/><path class="cls-1" d="M2.77,62.58h12.03v2.41H2.77v-2.41Z"/><path class="cls-1" d="M0,26.47h2.41v36.1H0V26.47Z"/><path class="cls-1" d="M14.44,26.47h2.41v36.1h-2.41V26.47Z"/><path class="cls-1" d="M2.41,24.07h4.81v2.41H2.41v-2.41Z"/><path class="cls-1" d="M9.63,24.07h4.81v2.41h-4.81v-2.41Z"/></g></svg>