<?xml version="1.0" encoding="UTF-8"?><svg id="Layer_2" xmlns="http://www.w3.org/2000/svg" viewBox="0 0 39.6 44.55"><defs><style>.cls-1{fill:#322846;stroke-width:0px;}</style></defs><g id="Layer_1-2"><path class="cls-1" d="M29.7,29.7v-4.95h4.95v-4.95h-4.95v-4.95h-9.9v-4.95h-4.95v4.95h-4.95v-4.95h-4.95v4.95H0v24.75h4.95v-19.8h19.8v19.8h9.9v-4.95h-4.95v-4.95Z"/><path class="cls-1" d="M14.85,39.6H4.95v4.95h19.8v-4.95h-9.9Z"/><path class="cls-1" d="M34.65,24.75v9.9h4.95v-9.9h-4.95Z"/><path class="cls-1" d="M24.75,9.9v-4.95h-4.95v4.95h4.95Z"/><path class="cls-1" d="M19.8,0h-4.95v4.95h4.95V0Z"/><path class="cls-1" d="M14.85,4.95h-4.95v4.95h4.95v-4.95Z"/><path class="cls-1" d="M4.95,0v4.95h4.95V0h-4.95Z"/></g></svg>