<?xml version="1.0" encoding="UTF-8"?><svg id="Layer_2" xmlns="http://www.w3.org/2000/svg" viewBox="0 0 46.33 56.63"><defs><style>.cls-1{fill:#322846;stroke-width:0px;}</style></defs><g id="Layer_1-2"><path class="cls-1" d="M43.76,10.3h2.57v2.57h-2.57v-2.57Z"/><path class="cls-1" d="M43.76,7.72h2.57v2.57h-2.57v-2.57Z"/><path class="cls-1" d="M43.76,5.15h2.57v2.57h-2.57v-2.57Z"/><path class="cls-1" d="M41.18,48.91h2.57v2.57h-2.57v-2.57Z"/><path class="cls-1" d="M41.18,46.33h2.57v2.57h-2.57v-2.57Z"/><path class="cls-1" d="M41.18,12.87h2.57v2.57h-2.57v-2.57Z"/><path class="cls-1" d="M41.18,10.3h2.57v2.57h-2.57v-2.57Z"/><path class="cls-1" d="M41.18,5.15h2.57v2.57h-2.57v-2.57Z"/><path class="cls-1" d="M41.18,2.57h2.57v2.57h-2.57v-2.57Z"/><path class="cls-1" d="M38.61,51.48h2.57v2.57h-2.57v-2.57Z"/><path class="cls-1" d="M38.61,48.91h2.57v2.57h-2.57v-2.57Z"/><path class="cls-1" d="M38.61,46.33h2.57v2.57h-2.57v-2.57Z"/><path class="cls-1" d="M38.61,43.76h2.57v2.57h-2.57v-2.57Z"/><path class="cls-1" d="M38.61,15.44h2.57v2.57h-2.57v-2.57Z"/><path class="cls-1" d="M38.61,12.87h2.57v2.57h-2.57v-2.57Z"/><path class="cls-1" d="M38.61,2.57h2.57v2.57h-2.57v-2.57Z"/><path class="cls-1" d="M36.04,51.48h2.57v2.57h-2.57v-2.57Z"/><path class="cls-1" d="M36.04,43.76h2.57v2.57h-2.57v-2.57Z"/><path class="cls-1" d="M36.04,41.18h2.57v2.57h-2.57v-2.57Z"/><path class="cls-1" d="M36.04,18.02h2.57v2.57h-2.57v-2.57Z"/><path class="cls-1" d="M36.04,15.44h2.57v2.57h-2.57v-2.57Z"/><path class="cls-1" d="M36.04,2.57h2.57v2.57h-2.57v-2.57Z"/><path class="cls-1" d="M36.04,0h2.57v2.57h-2.57V0Z"/><path class="cls-1" d="M33.46,54.05h2.57v2.57h-2.57v-2.57Z"/><path class="cls-1" d="M33.46,51.48h2.57v2.57h-2.57v-2.57Z"/><path class="cls-1" d="M33.46,41.18h2.57v2.57h-2.57v-2.57Z"/><path class="cls-1" d="M33.46,38.61h2.57v2.57h-2.57v-2.57Z"/><path class="cls-1" d="M33.46,18.02h2.57v2.57h-2.57v-2.57Z"/><path class="cls-1" d="M33.46,0h2.57v2.57h-2.57V0Z"/><path class="cls-1" d="M30.89,54.05h2.57v2.57h-2.57v-2.57Z"/><path class="cls-1" d="M30.89,38.61h2.57v2.57h-2.57v-2.57Z"/><path class="cls-1" d="M30.89,36.04h2.57v2.57h-2.57v-2.57Z"/><path class="cls-1" d="M30.89,20.59h2.57v2.57h-2.57v-2.57Z"/><path class="cls-1" d="M30.89,18.02h2.57v2.57h-2.57v-2.57Z"/><path class="cls-1" d="M30.89,0h2.57v2.57h-2.57V0Z"/><path class="cls-1" d="M28.31,54.05h2.57v2.57h-2.57v-2.57Z"/><path class="cls-1" d="M28.31,36.04h2.57v2.57h-2.57v-2.57Z"/><path class="cls-1" d="M28.31,33.46h2.57v2.57h-2.57v-2.57Z"/><path class="cls-1" d="M28.31,23.17h2.57v2.57h-2.57v-2.57Z"/><path class="cls-1" d="M28.31,20.59h2.57v2.57h-2.57v-2.57Z"/><path class="cls-1" d="M28.31,10.3h2.57v2.57h-2.57v-2.57Z"/><path class="cls-1" d="M28.31,7.72h2.57v2.57h-2.57v-2.57Z"/><path class="cls-1" d="M28.31,0h2.57v2.57h-2.57V0Z"/><path class="cls-1" d="M25.74,54.05h2.57v2.57h-2.57v-2.57Z"/><path class="cls-1" d="M25.74,33.46h2.57v2.57h-2.57v-2.57Z"/><path class="cls-1" d="M25.74,30.89h2.57v2.57h-2.57v-2.57Z"/><path class="cls-1" d="M25.74,25.74h2.57v2.57h-2.57v-2.57Z"/><path class="cls-1" d="M25.74,23.17h2.57v2.57h-2.57v-2.57Z"/><path class="cls-1" d="M25.74,10.3h2.57v2.57h-2.57v-2.57Z"/><path class="cls-1" d="M25.74,7.72h2.57v2.57h-2.57v-2.57Z"/><path class="cls-1" d="M25.74,0h2.57v2.57h-2.57V0Z"/><path class="cls-1" d="M23.17,54.05h2.57v2.57h-2.57v-2.57Z"/><path class="cls-1" d="M23.17,30.89h2.57v2.57h-2.57v-2.57Z"/><path class="cls-1" d="M23.17,28.31h2.57v2.57h-2.57v-2.57Z"/><path class="cls-1" d="M23.17,25.74h2.57v2.57h-2.57v-2.57Z"/><path class="cls-1" d="M23.17,0h2.57v2.57h-2.57V0Z"/><path class="cls-1" d="M20.59,54.05h2.57v2.57h-2.57v-2.57Z"/><path class="cls-1" d="M20.59,0h2.57v2.57h-2.57V0Z"/><path class="cls-1" d="M18.02,54.05h2.57v2.57h-2.57v-2.57Z"/><path class="cls-1" d="M18.02,2.57h2.57v2.57h-2.57v-2.57Z"/><path class="cls-1" d="M18.02,0h2.57v2.57h-2.57V0Z"/><path class="cls-1" d="M15.44,54.05h2.57v2.57h-2.57v-2.57Z"/><path class="cls-1" d="M15.44,51.48h2.57v2.57h-2.57v-2.57Z"/><path class="cls-1" d="M15.44,5.15h2.57v2.57h-2.57v-2.57Z"/><path class="cls-1" d="M15.44,2.57h2.57v2.57h-2.57v-2.57Z"/><path class="cls-1" d="M12.87,51.48h2.57v2.57h-2.57v-2.57Z"/><path class="cls-1" d="M12.87,48.91h2.57v2.57h-2.57v-2.57Z"/><path class="cls-1" d="M12.87,5.15h2.57v2.57h-2.57v-2.57Z"/><path class="cls-1" d="M10.3,48.91h2.57v2.57h-2.57v-2.57Z"/><path class="cls-1" d="M10.3,46.33h2.57v2.57h-2.57v-2.57Z"/><path class="cls-1" d="M10.3,7.72h2.57v2.57h-2.57v-2.57Z"/><path class="cls-1" d="M10.3,5.15h2.57v2.57h-2.57v-2.57Z"/><path class="cls-1" d="M7.72,46.33h2.57v2.57h-2.57v-2.57Z"/><path class="cls-1" d="M7.72,43.76h2.57v2.57h-2.57v-2.57Z"/><path class="cls-1" d="M7.72,10.3h2.57v2.57h-2.57v-2.57Z"/><path class="cls-1" d="M7.72,7.72h2.57v2.57h-2.57v-2.57Z"/><path class="cls-1" d="M5.15,43.76h2.57v2.57h-2.57v-2.57Z"/><path class="cls-1" d="M5.15,41.18h2.57v2.57h-2.57v-2.57Z"/><path class="cls-1" d="M5.15,12.87h2.57v2.57h-2.57v-2.57Z"/><path class="cls-1" d="M5.15,10.3h2.57v2.57h-2.57v-2.57Z"/><path class="cls-1" d="M2.57,41.18h2.57v2.57h-2.57v-2.57Z"/><path class="cls-1" d="M2.57,38.61h2.57v2.57h-2.57v-2.57Z"/><path class="cls-1" d="M2.57,36.04h2.57v2.57h-2.57v-2.57Z"/><path class="cls-1" d="M2.57,18.02h2.57v2.57h-2.57v-2.57Z"/><path class="cls-1" d="M2.57,15.44h2.57v2.57h-2.57v-2.57Z"/><path class="cls-1" d="M2.57,12.87h2.57v2.57h-2.57v-2.57Z"/><path class="cls-1" d="M0,36.04h2.57v2.57H0v-2.57Z"/><path class="cls-1" d="M0,33.46h2.57v2.57H0v-2.57Z"/><path class="cls-1" d="M0,30.89h2.57v2.57H0v-2.57Z"/><path class="cls-1" d="M0,28.31h2.57v2.57H0v-2.57Z"/><path class="cls-1" d="M0,25.74h2.57v2.57H0v-2.57Z"/><path class="cls-1" d="M0,23.17h2.57v2.57H0v-2.57Z"/><path class="cls-1" d="M0,20.59h2.57v2.57H0v-2.57Z"/><path class="cls-1" d="M0,18.02h2.57v2.57H0v-2.57Z"/></g></svg>