<?xml version="1.0" encoding="UTF-8"?><svg id="Layer_2" xmlns="http://www.w3.org/2000/svg" viewBox="0 0 43.89 63.96"><defs><style>.cls-1{fill:#322846;stroke-width:0px;}</style></defs><g id="Layer_1-2"><path class="cls-1" d="M3.99,3.99h3.99v3.99h-3.99v-3.99Z"/><path class="cls-1" d="M35.91,3.99h3.99v3.99h-3.99v-3.99Z"/><path class="cls-1" d="M3.99,35.97h3.99v3.99h-3.99v-3.99Z"/><path class="cls-1" d="M35.91,35.97h3.99v3.99h-3.99v-3.99Z"/><path class="cls-1" d="M39.9,39.96v3.99H3.99v-3.99H0v7.98h19.95v16.02h3.99v-16.02h19.95v-7.98h-3.99Z"/><path class="cls-1" d="M15.96,3.99h19.95V0H7.98v3.99h7.98Z"/><path class="cls-1" d="M27.93,16.02v15.96h3.99V12.03h-3.99v3.99Z"/><path class="cls-1" d="M15.96,27.99v-15.96h-3.99v19.95h3.99v-3.99Z"/><path class="cls-1" d="M7.98,8.04h3.99v3.99h-3.99v-3.99Z"/><path class="cls-1" d="M31.92,8.04h3.99v3.99h-3.99v-3.99Z"/><path class="cls-1" d="M7.98,31.98h3.99v3.99h-3.99v-3.99Z"/><path class="cls-1" d="M31.92,31.98h3.99v3.99h-3.99v-3.99Z"/></g></svg>