<?xml version="1.0" encoding="UTF-8"?><svg id="Layer_2" xmlns="http://www.w3.org/2000/svg" viewBox="0 0 30.16 60.33"><defs><style>.cls-1{fill:#322846;stroke-width:0px;}</style></defs><g id="Layer_1-2"><path class="cls-1" d="M3.02,9.05h3.02v3.02h-3.02v-3.02Z"/><path class="cls-1" d="M12.07,0h6.03v3.02h-6.03V0Z"/><path class="cls-1" d="M24.13,9.05h3.02v3.02h-3.02v-3.02Z"/><path class="cls-1" d="M24.13,9.05v-3.02h-3.02v-3.02h-3.02v3.02h-6.03v-3.02h-3.02v3.02h-3.02v3.02h18.1Z"/><path class="cls-1" d="M3.02,54.29h3.02v3.02h-3.02v-3.02Z"/><path class="cls-1" d="M6.03,57.31h18.1v3.02H6.03v-3.02Z"/><path class="cls-1" d="M24.13,54.29h3.02v3.02h-3.02v-3.02Z"/><path class="cls-1" d="M27.15,12.07v3.02H3.02v-3.02H0v42.23h3.02v-3.02h24.13v3.02h3.02V12.07h-3.02ZM3.02,48.26v-30.16h6.03v30.16H3.02ZM12.07,48.26v-30.16h6.03v30.16h-6.03ZM27.15,48.26h-6.03v-30.16h6.03v30.16Z"/></g></svg>