<?xml version="1.0" encoding="UTF-8"?><svg id="Layer_2" xmlns="http://www.w3.org/2000/svg" viewBox="0 0 54.29 60.33"><defs><style>.cls-1{fill:#322846;stroke-width:0px;}</style></defs><g id="Layer_1-2"><path class="cls-1" d="M21.11,27.15h3.02v24.13h-3.02v-24.13Z"/><path class="cls-1" d="M12.07,27.15h3.02v24.13h-3.02v-24.13Z"/><path class="cls-1" d="M30.16,27.15h3.02v24.13h-3.02v-24.13Z"/><path class="cls-1" d="M39.21,27.15h3.02v24.13h-3.02v-24.13Z"/><path class="cls-1" d="M6.03,54.29h3.02v3.02h-3.02v-3.02Z"/><path class="cls-1" d="M45.25,54.29h3.02v3.02h-3.02v-3.02Z"/><path class="cls-1" d="M9.05,57.31h36.2v3.02H9.05v-3.02Z"/><path class="cls-1" d="M3.02,18.1v36.2h3.02V21.11h42.23v33.18h3.02V18.1H3.02Z"/><path class="cls-1" d="M0,12.07h3.02v6.03H0v-6.03Z"/><path class="cls-1" d="M51.28,12.07v-3.02h-15.08V3.02h-3.02v6.03h-12.07V3.02h-3.02v6.03H3.02v3.02h48.26Z"/><path class="cls-1" d="M51.28,12.07h3.02v6.03h-3.02v-6.03Z"/><path class="cls-1" d="M21.11,0h12.07v3.02h-12.07V0Z"/></g></svg>