<?xml version="1.0" encoding="UTF-8"?><svg id="Layer_2" xmlns="http://www.w3.org/2000/svg" viewBox="0 0 36.68 38.61"><defs><style>.cls-1{fill:#322846;stroke-width:0px;}</style></defs><g id="Layer_1-2"><path class="cls-1" d="M34.75,1.93V0h-15.44v1.93h-1.93v11.58h-1.93v1.93h-1.93v1.93h-1.93v1.93h-1.93v1.93h-3.86v-1.93h-1.93v-1.93h-1.93v-3.86H0v9.65h1.93v1.93h1.93v1.93h1.93v1.93h1.93v1.93h1.93v7.72h3.86v-1.93h-1.93v-1.93h1.93v-1.93h1.93v-1.93h3.86v1.93h3.86v-1.93h-1.93v-1.93h1.93v-1.93h1.93v-9.65h1.93v1.93h1.93v-3.86h-3.86v-1.93h7.72v-1.93h-5.79v-1.93h9.65V1.93h-1.93ZM23.17,1.93v1.93h-1.93v-1.93h1.93Z"/></g></svg>