<?xml version="1.0" encoding="UTF-8"?><svg id="Layer_2" xmlns="http://www.w3.org/2000/svg" viewBox="0 0 60.99 23.24"><defs><style>.cls-1{fill:#322846;stroke-width:0px;}</style></defs><g id="Layer_1-2"><path class="cls-1" d="M58.07,8.71v-2.9h-8.71v-2.9h-5.81V0h-20.34v2.9h-5.81v2.9H2.9v2.9H0v8.72h5.81v2.9h2.9v-5.81H2.9v-2.91h2.9v-2.92h14.52v2.92h20.33v-2.92h2.91v-2.9h2.9v2.9h8.71v2.92h2.9v2.9h-8.71v5.81h2.9v-2.9h8.71v-8.72h-2.92ZM37.75,5.81v2.9h-14.53v-2.9h2.9v-2.9h14.53v2.9h-2.9Z"/><path class="cls-1" d="M46.46,11.62h-2.9v2.9h5.8v-2.9h-2.9Z"/><path class="cls-1" d="M43.56,20.33v2.91h5.8v-2.91h-5.8Z"/><path class="cls-1" d="M43.56,14.53H14.51v5.8h2.9v-2.9h23.24v2.9h2.91v-5.8Z"/><path class="cls-1" d="M14.51,14.53v-2.9h-5.8v2.9h5.8Z"/><path class="cls-1" d="M8.71,20.33v2.91h5.8v-2.91h-5.8Z"/></g></svg>