<?xml version="1.0" encoding="UTF-8"?><svg xmlns="http://www.w3.org/2000/svg" viewBox="0 0 42.65 61.5"><defs><style>.cls-1{fill:#322846;mix-blend-mode:multiply;stroke-width:0px;}.cls-2{isolation:isolate;}</style></defs><g class="cls-2"><g id="Layer_2"><g id="Layer_1-2"><path class="cls-1" d="M41.59,37.11v-4.25h-1.07s0-5.3,0-5.3h-1.07v-4.25h1.07v-5.3h1.07v-3.19h-1.07s-2.14,0-2.14,0v1.06h-2.13v1.06h-1.07v1.06h-1.07s-1.07,0-1.07,0v-4.25h-1.07s0-2.12,0-2.12h-1.07v-2.12h-1.07v-2.12h-1.07v-2.12h-1.07s0-1.06,0-1.06h-1.07v-1.06h-1.07s0-1.06,0-1.06h-1.07v-1.06h-1.07s0-1.06,0-1.06h-2.13v3.19h1.07v6.37h-1.07s0,3.17,0,3.17h-1.07v3.19h-1.07s0,1.05,0,1.05h-1.07v-1.06h-1.07v-1.06h-1.07v-1.06h-1.07s0-1.06,0-1.06h-2.14v-1.06h-2.13v2.12h1.07v5.31h-1.07s0,2.12,0,2.12h-1.07v1.06h-1.07s0,1.06,0,1.06h-1.07v1.06h-1.07s0,1.06,0,1.06h-1.07v5.3h-1.07v2.12h1.07v1.06h-1.07v-1.07h-1.07v-1.06h-1.07s0-1.06,0-1.06h-1.07v1.06H0v7.43h1.07v2.12h1.07v2.12h1.07v1.06l1.07-.02v1.06h1.07v1.06h1.07v1.06h1.07v1.06h1.07s1.07,0,1.07,0v1.06h1.07v1.06h1.07v1.06h1.07s0,1.06,0,1.06h1.07v1.06h1.07v2.12h1.07v5.3h1.07v-1.06h1.07v-2.12h1.07v-7.42s-1.06,0-1.06,0v-3.19h-1.07s0-2.12,0-2.12h-1.07v-2.12h-1.07s0-1.05,0-1.05h-1.07v-2.12h-1.07v-2.12h-1.07v-3.19h1.07s0-3.18,0-3.18h1.07v-1.06h1.07v3.19h1.07v1.06h1.07s0,1.06,0,1.06h1.07v1.06h2.13v-6.37h1.07v-2.12h1.07v-2.12h1.07v-1.06h1.07v-2.12h1.07s0-4.24,0-4.24h1.07v2.12h1.07v6.37h-1.07v3.17h-1.07v4.25h1.07v2.12h1.07v1.06h1.07v-2.12h1.07v-1.07h1.07v-1.06h1.07v8.49h1.07v5.31h-1.07s0,3.17,0,3.17h-1.07v2.12h-1.07s0,2.12,0,2.12h2.13v-1.06h2.13v-1.06h1.07v-1.06h1.07v-1.06h1.07v-1.06h1.07s0-1.06,0-1.06h1.07v-1.06h1.07v-2.12h1.07v-4.24h1.07v-4.25h-1.07ZM40.52,42.41v1.06h-1.07v2.12h-1.07s0,2.12,0,2.12h-1.07v1.06h-1.07s0,1.06,0,1.06h-1.07v1.06h-1.07v1.06h-1.07v-2.13h1.07s0-3.18,0-3.18h1.07v-3.19h-1.07s0-4.24,0-4.24h-1.07v-4.25h1.07s0-3.18,0-3.18h1.07v-1.06s-4.26,0-4.26,0v1.06h-1.07v1.06h-1.07v2.12h-1.07v-5.31h1.07v-10.61h-1.07s0-2.12,0-2.12h-1.07v-1.06h-1.07v1.07h-1.07v3.19h-1.07s0,3.18,0,3.18h-1.07v2.12h-1.07s0,1.06,0,1.06h-1.07v2.12h-1.07s0,3.18,0,3.18h-1.07v1.06h-1.07v-1.07h-1.07v-3.18h1.07s0-1.06,0-1.06h-3.2v1.06h-1.07v2.12h-1.07v1.06h-1.07v8.49h1.07v2.12l1.07-.02v2.12h1.07v1.06h1.07v2.12h1.07v2.12h1.07s0,3.18,0,3.18h1.07v3.19h-1.07v-1.07h-1.07v-2.12h-1.07s0-2.12,0-2.12h-1.07v-1.06h-1.07s0-1.06,0-1.06h-2.13v-1.06h-1.07v-1.06h-1.07s-1.07,0-1.07,0v-1.06h-1.07v-1.06h-1.07v-2.12h-1.07s0-1.05,0-1.05h-1.07v-2.12h-1.07v-5.31h1.07v1.06h1.07v1.07h2.13v-7.43h1.07v-3.19h1.07s0-1.05,0-1.05h1.07v-1.06h1.07v-1.06h1.07v-1.06h1.07s0-6.37,0-6.37h1.07v1.06h1.07v1.06h1.07v2.12h1.07v2.13h2.13v-1.07s0-1.06,0-1.06h1.07v-2.12h1.07s0-1.06,0-1.06h1.07v-3.19h1.07V3.17h1.07v1.06h1.07v2.13h1.07v1.06h1.07v2.12h1.07v2.12h1.07s0,2.11,0,2.11h1.07v3.19h1.07v4.25h1.07v1.06h1.07v-1.07h1.07v-1.06s0-1.06,0-1.06h1.07v-1.06h2.13s0-1.06,0-1.06h1.07v1.06h-1.07v13.79h1.07v3.19h1.07v7.42Z"/></g></g></g></svg>