<?xml version="1.0" encoding="UTF-8"?><svg id="Layer_2" xmlns="http://www.w3.org/2000/svg" viewBox="0 0 32.72 51.79"><defs><style>.cls-1{fill:#322846;stroke-width:0px;}</style></defs><g id="Layer_1-2"><path class="cls-1" d="M24.19,30.6h3.13v3.13h-3.13v-3.13Z"/><path class="cls-1" d="M21.06,27.46h3.13v3.13h-3.13v-3.13Z"/><path class="cls-1" d="M17.92,24.33h3.13v3.13h-3.13v-3.13Z"/><path class="cls-1" d="M17.92,42.65h3.13v3.13h-3.13v-3.13Z"/><path class="cls-1" d="M17.92,42.65v-3.13h-3.13v3.13h3.13Z"/><path class="cls-1" d="M21.06,21.2h3.13v3.13h-3.13v-3.13Z"/><path class="cls-1" d="M24.19,18.06h3.13v3.13h-3.13v-3.13Z"/><path class="cls-1" d="M17.92,14.93h3.13v3.13h-3.13v-3.13Z"/><path class="cls-1" d="M30.46,33.73h-3.14s0,15.18,0,15.18h-3.13v-3.12h-3.13v3.12h-3.13v-3.12h-3.13v3.12h-3.13v-3.12h-3.13v3.12h-3.13v-15.18h-3.13v15.18H.06v2.88h32.59v-2.88h-2.19v-15.18Z"/><path class="cls-1" d="M16.36,0H0v2.88h2.19v15.18h3.13s0-15.18,0-15.18h22.06v15.18h3.13V2.88h2.19V0h-16.36Z"/><path class="cls-1" d="M5.39,30.6h3.13v3.13h-3.13v-3.13Z"/><path class="cls-1" d="M8.53,27.46h3.13v3.13h-3.13v-3.13Z"/><path class="cls-1" d="M11.66,24.33h3.13v3.13h-3.13v-3.13Z"/><path class="cls-1" d="M11.66,42.65h3.13v3.13h-3.13v-3.13Z"/><path class="cls-1" d="M8.53,21.2h3.13v3.13h-3.13v-3.13Z"/><path class="cls-1" d="M5.39,18.06h3.13v3.13h-3.13v-3.13Z"/><path class="cls-1" d="M16.36,21.2h1.57v-3.13h-3.13v3.13h1.57Z"/></g></svg>